<?xml version="1.0" encoding="iso-8859-1"?>
<!-- Generator: Adobe Illustrator 19.0.0, SVG Export Plug-In . SVG Version: 6.00 Build 0)  -->
<svg version="1.1" id="Layer_1" xmlns="http://www.w3.org/2000/svg" xmlns:xlink="http://www.w3.org/1999/xlink" x="0px" y="0px"
	 viewBox="0 0 512 512" style="enable-background:new 0 0 512 512;" xml:space="preserve">
<circle style="fill:#D7F3F4;" cx="256" cy="256" r="248.686"/>
<path style="opacity:0.1;enable-background:new    ;" d="M39.707,256c0-131.904,102.697-239.802,232.491-248.149
	C266.841,7.507,261.443,7.312,256,7.312C118.655,7.312,7.313,118.653,7.313,256S118.655,504.688,256,504.688
	c5.443,0,10.841-0.194,16.197-0.539C142.403,495.802,39.707,387.904,39.707,256z"/>
<circle style="fill:#9BD3DD;" cx="256" cy="256" r="183.902"/>
<path style="opacity:0.1;enable-background:new    ;" d="M104.49,256c0-96.109,73.728-174.983,167.707-183.186
	c-5.337-0.466-10.737-0.718-16.197-0.718C154.433,72.096,72.096,154.432,72.096,256S154.433,439.904,256,439.904
	c5.46,0,10.86-0.252,16.197-0.718C178.218,430.983,104.49,352.109,104.49,256z"/>
<path style="fill:#9BCC5C;" d="M256,363.56c-1.814,0-3.63-0.343-5.345-1.029c-23.611-9.445-43.637-23.787-57.911-41.476
	c-15.259-18.904-23.323-40.866-23.323-63.512c0-22.346,8.02-46.931,22.578-69.226c14.295-21.89,34.52-40.886,56.952-53.489
	c2.189-1.23,4.618-1.845,7.049-1.845c2.43,0,4.86,0.614,7.05,1.845c22.432,12.605,42.656,31.601,56.949,53.489
	c14.561,22.294,22.58,46.879,22.58,69.226c0,22.643-8.066,44.605-23.323,63.512c-14.279,17.691-34.304,32.033-57.912,41.476
	C259.63,363.217,257.814,363.56,256,363.56z"/>
<path style="opacity:0.1;enable-background:new    ;" d="M225.283,321.054c-15.258-18.904-23.323-40.866-23.323-63.512
	c0-22.346,8.02-46.931,22.578-69.226c12.305-18.844,29.013-35.531,47.732-47.854c-3.025-1.992-6.098-3.882-9.219-5.635
	c-2.19-1.231-4.62-1.845-7.05-1.845c-2.43,0-4.86,0.614-7.049,1.845c-22.432,12.604-42.657,31.6-56.952,53.489
	c-14.56,22.295-22.578,46.88-22.578,69.226c0,22.645,8.066,44.607,23.323,63.512c14.274,17.689,34.301,32.03,57.911,41.476
	c1.716,0.687,3.531,1.029,5.345,1.029c1.814,0,3.63-0.343,5.344-1.029c3.739-1.495,7.376-3.127,10.925-4.862
	C253.399,348.446,237.298,335.943,225.283,321.054z"/>
<path d="M100.437,365.873l-14.539-1.658c-4.298-0.491-8.184,2.598-8.675,6.898c-0.49,4.301,2.599,8.184,6.898,8.675l31.023,3.538
	c0.452,0.051,0.902,0.077,1.35,0.077c2.62,0,5.144-0.878,7.224-2.533c2.433-1.936,3.967-4.703,4.321-7.793l3.542-31.029
	c0.491-4.3-2.597-8.185-6.897-8.675c-4.298-0.485-8.184,2.598-8.675,6.897l-2.014,17.636
	c-21.671-29.934-33.085-65.181-33.085-102.513c0-20.414,3.473-40.409,10.324-59.432c1.466-4.072-0.646-8.562-4.719-10.028
	c-4.069-1.468-8.561,0.645-10.029,4.718c-7.466,20.729-11.25,42.512-11.25,64.742C65.239,294.951,77.671,333.75,100.437,365.873z"/>
<path d="M376.765,117.672c2.717-3.37,2.187-8.304-1.183-11.019C341.848,79.456,299.38,64.478,256,64.478
	c-33.015,0-65.55,8.577-94.091,24.803c-27.668,15.73-51.183,38.348-68.004,65.407c-2.285,3.676-1.157,8.509,2.519,10.793
	c1.287,0.8,2.717,1.182,4.129,1.182c2.619,0,5.179-1.312,6.663-3.701c15.444-24.847,37.034-45.614,62.438-60.057
	C195.84,88.018,225.697,80.15,256,80.15c40.389,0,78.339,13.383,109.745,38.703C369.116,121.572,374.05,121.042,376.765,117.672z"/>
<path d="M136.418,404.131c33.732,27.199,76.201,42.177,119.582,42.177c105.187,0,190.763-85.644,190.763-190.915
	c0-39.856-12.621-78.937-35.715-111.195l15.359,2.642c4.273,0.734,8.318-2.13,9.052-6.395c0.733-4.266-2.13-8.318-6.395-9.052
	l-30.772-5.292c-3.066-0.53-6.158,0.167-8.699,1.964c-2.54,1.794-4.23,4.47-4.758,7.536l-5.296,30.777
	c-0.734,4.266,2.129,8.318,6.395,9.053c0.45,0.077,0.895,0.114,1.337,0.114c3.745,0,7.057-2.694,7.714-6.509l2.825-16.42
	c21.797,29.988,33.278,65.332,33.278,102.777c0,96.629-78.545,175.242-175.089,175.242c-40.391,0-78.34-13.384-109.744-38.704
	c-3.369-2.717-8.302-2.187-11.021,1.182C132.52,396.481,133.049,401.415,136.418,404.131z"/>
<path d="M510.022,229.076c-0.444-4.305-4.296-7.438-8.597-6.993c-4.306,0.442-7.437,4.291-6.995,8.596
	c0.853,8.28,1.28,16.726,1.272,25.102c-0.048,55.45-18.403,107.561-53.082,150.701c-2.712,3.373-2.175,8.306,1.197,11.017
	c1.448,1.163,3.182,1.729,4.905,1.729c2.293,0,4.565-1.001,6.114-2.928c36.409-45.293,56.488-102.296,56.538-160.507
	C511.384,246.881,510.929,237.891,510.022,229.076z"/>
<path d="M423.814,429.047l-30.904-4.499c-4.267-0.618-8.259,2.343-8.884,6.626c-0.624,4.283,2.343,8.261,6.627,8.884l16.413,2.39
	c-0.341,0.199-0.675,0.416-0.991,0.672c-43.028,34.763-94.998,53.161-150.293,53.207c-0.069,0-0.139,0-0.209,0
	c-63.828,0-123.838-24.861-168.994-70.019c-45.376-45.376-70.335-105.782-70.281-170.093c0.046-54.652,18.896-108.172,53.08-150.699
	c2.712-3.373,2.174-8.306-1.197-11.017c-3.375-2.712-8.307-2.174-11.018,1.199c-36.412,45.298-56.489,102.3-56.537,160.506
	C0.567,324.703,27.157,389.051,75.496,437.39c48.121,48.121,112.059,74.613,180.078,74.61c0.07,0,0.152,0,0.223,0
	c58.071-0.048,114.939-20.18,160.125-56.686l-2.268,15.582c-0.624,4.283,2.344,8.26,6.627,8.884
	c0.382,0.055,0.762,0.083,1.139,0.083c3.827,0,7.177-2.809,7.745-6.709l4.497-30.9c0.45-3.079-0.328-6.15-2.189-8.644
	C429.612,431.114,426.894,429.495,423.814,429.047z"/>
<path d="M93.728,80.069l30.905,4.499c0.382,0.055,0.762,0.083,1.139,0.083c3.827,0,7.176-2.809,7.745-6.708
	c0.624-4.283-2.343-8.261-6.626-8.884l-17.902-2.606c42.423-33.185,93.237-50.735,147.226-50.78c0.072,0,0.134,0,0.206,0
	c108.148,0,203.18,72.994,231.136,177.566c0.936,3.504,4.103,5.815,7.565,5.815c0.671,0,1.351-0.087,2.028-0.267
	c4.182-1.118,6.665-5.414,5.547-9.595C472.913,77.768,371.663,0,256.423,0c-0.07,0-0.15,0-0.22,0
	C200.58,0.046,146.07,18.528,101.86,52.165l2.029-13.943c0.624-4.283-2.344-8.26-6.627-8.884c-4.268-0.621-8.26,2.343-8.884,6.627
	l-4.497,30.9c-0.45,3.08,0.327,6.15,2.189,8.645C87.932,78.003,90.651,79.622,93.728,80.069z"/>
<path d="M338.691,285.599c4.232,0.928,8.407-1.751,9.333-5.978c1.589-7.249,2.394-14.678,2.394-22.078
	c0-23.849-8.472-49.956-23.855-73.511c-14.97-22.925-36.162-42.826-59.671-56.037c-3.319-1.865-7.083-2.85-10.89-2.85
	c-3.807,0-7.571,0.985-10.888,2.849c-23.51,13.21-44.703,33.11-59.674,56.037c-15.383,23.555-23.854,49.662-23.854,73.511
	c0,24.456,8.666,48.12,25.061,68.433c15.115,18.731,36.242,33.887,61.099,43.83c0.138,0.055,0.28,0.092,0.418,0.145v9.067
	c0,4.328,3.508,7.837,7.837,7.837c4.329,0,7.837-3.509,7.837-7.837v-9.066c0.139-0.052,0.281-0.09,0.418-0.145
	c24.852-9.941,45.981-25.097,61.101-43.831c4.094-5.073,7.76-10.438,10.896-15.941c2.143-3.761,0.831-8.546-2.93-10.688
	c-3.762-2.142-8.546-0.831-10.688,2.93c-2.721,4.775-5.908,9.438-9.474,13.857c-12.339,15.288-29.314,27.933-49.322,36.827v-26.174
	l41.481-29.002c3.548-2.481,4.414-7.366,1.933-10.913c-2.479-3.546-7.366-4.413-10.912-1.933l-32.504,22.723v-32.855
	c0-4.328-3.508-7.837-7.837-7.837c-4.329,0-7.837,3.509-7.837,7.837v32.855l-32.504-22.723c-3.547-2.481-8.433-1.613-10.912,1.933
	c-2.481,3.547-1.615,8.433,1.933,10.913l41.484,29v26.173c-20.011-8.896-36.985-21.542-49.32-36.826
	c-14.121-17.496-21.584-37.755-21.584-58.59c0-20.84,7.565-43.903,21.303-64.94c13.618-20.854,32.878-38.945,54.23-50.943
	c1.955-1.099,4.463-1.099,6.421,0.001c21.352,11.998,40.609,30.089,54.226,50.943c13.738,21.037,21.305,44.099,21.305,64.94
	c0,6.274-0.683,12.573-2.03,18.724C331.786,280.493,334.463,284.672,338.691,285.599z"/>
<path d="M263.836,225.504v-38.989c0-4.328-3.508-7.837-7.837-7.837c-4.329,0-7.837,3.509-7.837,7.837v38.989
	c0,4.328,3.508,7.837,7.837,7.837C260.328,233.34,263.836,229.832,263.836,225.504z"/>
<path d="M216.206,226.893c-2.481,3.547-1.615,8.433,1.933,10.913l33.372,23.329c1.348,0.943,2.918,1.414,4.49,1.414
	c1.57,0,3.142-0.471,4.49-1.414l33.373-23.329c3.548-2.48,4.414-7.365,1.934-10.913c-2.48-3.547-7.367-4.414-10.913-1.933
	L256,245.151l-28.882-20.191C223.57,222.481,218.685,223.347,216.206,226.893z"/>
<g>
</g>
<g>
</g>
<g>
</g>
<g>
</g>
<g>
</g>
<g>
</g>
<g>
</g>
<g>
</g>
<g>
</g>
<g>
</g>
<g>
</g>
<g>
</g>
<g>
</g>
<g>
</g>
<g>
</g>
</svg>
