<?xml version="1.0" encoding="utf-8"?>
<!-- Generator: Adobe Illustrator 24.0.0, SVG Export Plug-In . SVG Version: 6.00 Build 0)  -->
<svg version="1.1" id="Layer_1" xmlns="http://www.w3.org/2000/svg" xmlns:xlink="http://www.w3.org/1999/xlink" x="0px" y="0px"
	 viewBox="0 0 256 256" enable-background="new 0 0 256 256" xml:space="preserve">
<g>
</g>
<g>
	<path fill="#FFB69F" d="M251.236,144.621l-0.333,42.618c0,2.767-1.101,5.413-3.063,7.374l-48.366,48.375
		c-1.735,1.735-2.709,4.088-2.709,6.542v2.24h-46.616v-26.669h0.019c-0.333-9.817,3.405-19.375,10.391-26.361
		c22.148-22.126,16.923-16.904,25.464-25.445c3.414-3.414,9.003-3.396,12.39,0.139c3.323,3.47,3.024,8.94-0.268,12.232
		l-12.047,12.038c-3.747,3.766-3.72,9.882,0.12,13.592c3.701,3.59,9.938,3.313,13.583-0.333l29.683-29.692
		c1.536-1.536,2.396-3.599,2.396-5.764l0.333-30.886c0-5.265,4.266-9.521,9.521-9.521C246.98,135.1,251.236,139.356,251.236,144.621
		z"/>
	<path fill="#FFB69F" d="M105.848,225.102v26.669H59.232v-2.24c0-2.454-0.975-4.807-2.709-6.542L8.157,194.614
		c-1.962-1.962-3.063-4.608-3.063-7.374l-0.333-42.618c0-5.265,4.256-9.521,9.503-9.521c5.256,0,9.521,4.256,9.521,9.521
		l0.333,30.886c0,2.165,0.861,4.228,2.396,5.764l29.683,29.692c3.646,3.646,9.882,3.923,13.583,0.333
		c3.84-3.71,3.868-9.826,0.12-13.592l-12.047-12.038c-3.297-3.297-3.587-8.767-0.268-12.232c3.387-3.535,8.975-3.553,12.39-0.139
		l6.607,6.607l18.857,18.839c6.986,6.986,10.724,16.544,10.391,26.361H105.848z"/>
	<path fill="#F0C020" d="M46.072,113.467c-3.961-1.309-8.051-2.453-10.348-12.345c-2.115,9.112-5.504,10.745-10.348,12.345
		c7.9,2.61,9.092,6.933,10.348,12.345C37.889,116.483,41.469,114.988,46.072,113.467z"/>
	<path d="M33.133,126.414c-1.147-4.945-1.905-8.212-8.591-10.421c-2.43-0.803-2.424-4.25,0-5.051
		c4.025-1.33,6.684-2.209,8.591-10.422c0.633-2.73,4.546-2.737,5.181,0c1.95,8.399,4.863,9.193,8.591,10.421
		c2.43,0.803,2.424,4.25,0,5.051c-3.881,1.282-6.686,2.209-8.591,10.421C37.678,129.156,33.77,129.157,33.133,126.414z
		 M31.613,113.528c1.914,1.314,3.222,2.815,4.164,4.403c1.141-2.017,2.462-3.405,3.934-4.439c-1.411-1.01-2.778-2.44-3.977-4.601
		C34.547,111.024,33.162,112.466,31.613,113.528z"/>
	<path fill="#F0C020" d="M230.621,113.467c-3.961-1.309-8.051-2.453-10.348-12.345c-2.115,9.112-5.504,10.745-10.348,12.345
		c7.9,2.61,9.092,6.933,10.348,12.345C222.438,116.483,226.018,114.988,230.621,113.467z"/>
	<path d="M217.682,126.414c-1.147-4.945-1.905-8.212-8.591-10.421c-2.43-0.803-2.424-4.25,0-5.051
		c4.025-1.33,6.684-2.209,8.591-10.422c0.633-2.73,4.546-2.737,5.181,0c1.95,8.399,4.863,9.193,8.591,10.421
		c2.43,0.803,2.424,4.25,0,5.051c-3.881,1.282-6.686,2.209-8.591,10.421C222.227,129.156,218.319,129.157,217.682,126.414z
		 M216.162,113.528c1.914,1.314,3.222,2.815,4.164,4.403c1.141-2.017,2.462-3.405,3.934-4.439c-1.411-1.01-2.778-2.44-3.977-4.601
		C219.096,111.024,217.711,112.466,216.162,113.528z"/>
	<path fill="#72C2E9" d="M196.084,114.589c0,9.999-2.156,19.503-6.036,28.065c-15.281,33.726-54.356,48.712-87.88,34.939
		c-4.536-1.863-8.827-4.201-12.804-6.957c-18.338-12.658-30.11-34.003-29.426-57.588c0.07-3.015,0.328-5.987,0.775-8.897
		c2.652-17.263,11.786-32.405,24.876-42.83c22.599-18.011,53.628-19.482,77.552-5.059C182.84,68.165,196.084,89.783,196.084,114.589
		z"/>
	<path fill="#13BF6D" d="M128.354,148.681l-26.186,28.912c-4.536-1.863-8.827-4.201-12.804-6.957l2.122-30.258
		c0.291-4.157-1.29-8.226-4.311-11.095L60.713,104.15c2.652-17.263,11.786-32.405,24.876-42.83l25.809,10.464
		c7.301,2.96,10.706,11.374,7.519,18.579l-6.425,14.525c-2.735,6.183-0.645,13.438,4.961,17.217l8.359,5.636
		C132.858,132.491,134.059,142.382,128.354,148.681z"/>
	<path fill="#13BF6D" d="M196.087,114.589c0,10.001-2.16,19.503-6.04,28.062c-6.157-2.277-9.825-8.734-8.5-15.279l1.764-8.771
		c1.545-7.643-3.712-14.994-11.436-16.018l-9.085-1.193c-8.778-1.157-14.071-10.33-10.674-18.508l11.026-26.619
		C182.843,68.166,196.087,89.785,196.087,114.589z"/>
	<path fill="#13BF6D" d="M128.57,21.927h-17.79c-9.492,0-17.187-7.695-17.187-17.187V4.229h17.79
		c9.492,0,17.187,7.695,17.187,17.187V21.927z"/>
	<path fill="#13BF6D" d="M128.57,34.503h17.79c9.492,0,17.187-7.695,17.187-17.187v-0.511h-17.79
		c-9.492,0-17.187,7.695-17.187,17.187V34.503z"/>
	<path fill="#FBE0E2" d="M188.57,250.714c-1.381,0-2.5-1.119-2.5-2.5v-5.907c0-0.663,0.264-1.299,0.732-1.768l53.408-53.41
		l0.232-29.531c0.011-1.374,1.128-2.48,2.5-2.48c0.006,0,0.013,0,0.02,0c1.381,0.011,2.491,1.139,2.48,2.52l-0.232,29.555
		c0,1.285-0.497,2.502-1.4,3.408l-52.74,52.742v4.871C191.07,249.595,189.951,250.714,188.57,250.714z M243.022,150.118
		c-0.006,0-0.013,0-0.02,0c-1.381-0.011-2.491-1.139-2.48-2.52l0.023-3c0.011-1.374,1.128-2.48,2.5-2.48c0.006,0,0.013,0,0.02,0
		c1.381,0.011,2.491,1.139,2.48,2.52l-0.023,3C245.511,149.012,244.394,150.118,243.022,150.118z"/>
	<path fill="#FBE0E2" d="M97.658,250.714c-1.38,0-2.499-1.118-2.5-2.498l-0.002-3c-0.001-1.381,1.117-2.501,2.498-2.502
		c0,0,0.001,0,0.002,0c1.38,0,2.499,1.118,2.5,2.498l0.002,3c0.001,1.381-1.117,2.501-2.498,2.502
		C97.66,250.714,97.659,250.714,97.658,250.714z M97.647,237.714c-1.38,0-2.499-1.118-2.5-2.498l-0.008-10.394
		c0.212-7.221-2.569-13.826-7.26-18.516l-25.465-25.451c-0.977-0.976-0.977-2.559-0.001-3.535c0.976-0.977,2.56-0.978,3.535-0.001
		l25.466,25.451c5.733,5.732,9.003,13.812,8.724,22.134l0.01,10.308c0.001,1.381-1.117,2.501-2.498,2.502
		C97.649,237.714,97.648,237.714,97.647,237.714z"/>
	<path fill="#76FFBB" d="M108.823,171.748c-7.429-2.49-14.235-6.375-20.229-11.547c-1.045-0.902-1.162-2.48-0.259-3.526
		c0.901-1.045,2.48-1.162,3.526-0.259c5.5,4.745,11.741,8.309,18.551,10.591c1.309,0.439,2.015,1.856,1.576,3.165
		C111.552,171.474,110.142,172.188,108.823,171.748z"/>
	<path fill="#C5E5FE" d="M88.597,160.204c-9.548-8.213-16.176-18.934-19.167-31.002c-0.332-1.34,0.485-2.696,1.825-3.028
		c1.34-0.333,2.696,0.485,3.028,1.826c2.74,11.056,8.816,20.881,17.574,28.414c1.047,0.9,1.166,2.479,0.265,3.526
		C91.223,160.984,89.645,161.104,88.597,160.204z"/>
	<path fill="#C5E5FE" d="M127.937,174.884c-6.517,0-12.949-1.056-19.118-3.138c-1.309-0.441-2.011-1.86-1.569-3.168
		c0.442-1.309,1.861-2.01,3.168-1.569c5.653,1.908,11.548,2.875,17.52,2.875c13.751,0,26.961-5.098,37.197-14.354
		c1.024-0.926,2.604-0.846,3.531,0.178c0.926,1.024,0.847,2.605-0.178,3.531C157.331,169.328,142.929,174.884,127.937,174.884z
		 M172.072,152.042c-1.088-0.851-1.28-2.422-0.429-3.509c0.581-0.743,1.155-1.519,1.706-2.306c0.792-1.13,2.352-1.405,3.482-0.614
		c1.131,0.792,1.405,2.351,0.613,3.482c-0.602,0.859-1.229,1.706-1.864,2.518C174.732,152.7,173.16,152.893,172.072,152.042z"/>
	<path d="M253.739,144.64c0-6.64-5.391-12.04-12.011-12.04c-6.609,0-12,5.38-12.02,11.99l-0.33,30.89v0.03
		c0,1.5-0.59,2.92-1.66,3.99l-29.689,29.7c-2.721,2.721-7.409,2.896-10.07,0.3c-2.844-2.741-2.864-7.256-0.09-10.03l12.04-12.03
		c4.295-4.316,4.538-11.339,0.31-15.74c-4.279-4.463-11.49-4.651-15.97-0.17c-3.24,3.25-4.5,4.5-6.03,6.03
		c-1.334,1.334-1.224,2.814-0.26,3.8c0.939,0.94,2.59,0.94,3.54,0c0,0,3.657-3.658,6.29-6.3c2.387-2.387,6.352-2.451,8.819,0.1
		c2.4,2.511,2.069,6.43-0.239,8.74l-12.04,12.04c-4.796,4.815-4.64,12.534,0.149,17.16c4.701,4.547,12.471,4.23,17.09-0.37
		l29.681-29.69c2.01-2.01,3.13-4.68,3.13-7.51l0.33-30.88v-0.03c0.01-3.86,3.16-7.01,7.02-7.02c3.86,0.01,7,3.16,7.011,7.02
		l-0.341,42.6c0,2.12-0.83,4.12-2.33,5.63l-48.359,48.37c-2.22,2.22-3.44,5.17-3.44,8.31v2.24c0,1.38,1.12,2.5,2.5,2.5
		s2.5-1.12,2.5-2.5v-2.24c0-1.8,0.7-3.5,1.971-4.77l48.369-48.38c2.45-2.44,3.79-5.69,3.79-9.14L253.739,144.64z"/>
	<path d="M170.918,184.86c-0.982,0.961-0.994,2.558,0,3.53c0.986,1.008,2.574,0.965,3.53,0.01c0.974-0.975,0.974-2.565,0-3.54
		C173.508,183.92,171.858,183.92,170.918,184.86z"/>
	<path d="M167.388,195.45c0.97-0.97,0.97-2.56,0-3.54c-0.95-0.94-2.59-0.94-3.53,0c-1.51,1.51-3.189,3.19-5.069,5.06
		c-7.162,7.161-11.141,16.446-11.141,28.13v26.67c0,1.38,1.12,2.5,2.5,2.5c1.381,0,2.5-1.12,2.5-2.5v-26.36
		c0.158-1-1.234-14.003,9.681-24.9L167.388,195.45z"/>
	<path d="M6.389,196.382l48.366,48.375c1.275,1.275,1.978,2.971,1.978,4.774v2.24c0,1.381,1.119,2.5,2.5,2.5s2.5-1.119,2.5-2.5
		v-2.24c0-3.139-1.222-6.09-3.441-8.31L9.925,192.847c-1.503-1.503-2.331-3.495-2.331-5.626l-0.333-42.599
		c0-3.872,3.141-7.021,7.002-7.021c3.872,0,7.021,3.149,7.021,7.048l0.333,30.859c0,2.84,1.111,5.515,3.128,7.532l29.683,29.693
		c4.661,4.66,12.487,4.825,17.088,0.363c4.795-4.633,4.943-12.342,0.15-17.159l-12.046-12.037c-2.421-2.421-2.524-6.34-0.231-8.735
		c2.316-2.417,6.271-2.646,8.816-0.101l25.464,25.445c6.449,6.449,9.97,15.382,9.66,24.509c0,0,0.017-0.922,0.017,26.754
		c0,1.381,1.119,2.5,2.5,2.5s2.5-1.119,2.5-2.5c0-0.175,0.006-26.726-0.011-26.899c0.266-10.396-3.781-20.548-11.132-27.899
		l-25.463-25.445c-4.468-4.467-11.65-4.324-15.963,0.178c-4.16,4.344-4.022,11.4,0.307,15.729l12.042,12.033
		c2.772,2.785,2.749,7.292-0.089,10.034c-2.641,2.562-7.35,2.419-10.075-0.306l-29.683-29.693c-1.073-1.073-1.664-2.492-1.664-4.023
		l-0.333-30.859c0-6.628-5.393-12.021-12.021-12.021c-6.618,0-12.002,5.393-12.002,12.041l0.333,42.599
		C2.594,190.688,3.942,193.934,6.389,196.382z"/>
	<path d="M66.968,144.96c-1.21,0.66-1.66,2.19-0.99,3.39c0.656,1.221,2.193,1.647,3.39,1c1.228-0.687,1.645-2.203,0.99-3.39v-0.01
		C69.718,144.78,68.138,144.31,66.968,144.96z"/>
	<path d="M87.19,165.898c-4.344-3.454-8.237-7.424-11.602-11.868c-0.81-1.07-2.43-1.3-3.5-0.49c-1.151,0.89-1.287,2.444-0.49,3.5
		c13.039,17.242,33.689,28.15,56.34,28.15l0.01-0.05v0.05c38.969,0,70.64-31.528,70.64-70.6c0-37.723-29.692-68.86-67.518-70.514
		v-7.074h15.289c10.301,0,19.688-8.091,19.688-20.198c0-1.381-1.119-2.5-2.5-2.5h-17.79c-5.853,0-11.102,2.581-14.711,6.649
		c-0.249-10.641-8.964-19.225-19.663-19.225h-17.79c-1.381,0-2.5,1.119-2.5,2.5c0,12.06,9.343,20.198,19.687,20.198h15.29
		c0,4.972,0,14.646,0,19.612c-34.283,0.914-62.671,26.295-67.832,59.731c-1.775,11.615-0.782,23.687,3.44,35.16
		c0.46,1.25,1.95,1.94,3.21,1.48c1.308-0.477,1.96-1.916,1.48-3.21c-3.375-9.162-4.47-18.312-3.735-27.778l22.82,21.673
		c2.489,2.363,3.779,5.683,3.539,9.107L87.19,165.898z M145.757,19.305h15.156c-0.974,7.161-7.129,12.698-14.554,12.698h-9.253
		l5.88-3.352c1.199-0.684,1.617-2.21,0.934-3.41c-0.684-1.199-2.211-1.616-3.41-0.934l-8.641,4.926
		C133.851,23.465,139.325,19.305,145.757,19.305z M114.56,15.123l6.115,4.304h-9.895c-7.424,0-13.579-5.537-14.552-12.698h15.156
		c6.376,0,11.805,4.089,13.831,9.779l-7.777-5.474c-1.129-0.794-2.688-0.523-3.483,0.605
		C113.16,12.768,113.431,14.328,114.56,15.123z M193.588,114.59c-0.009,8.555-1.632,16.825-4.812,24.64
		c-3.727-2.393-5.694-6.84-4.778-11.366l1.764-8.769c1.827-9.041-4.397-17.776-13.561-18.992l-9.085-1.193
		c-7.148-0.942-11.461-8.404-8.69-15.073l9.885-23.867C182.692,72.19,193.588,92.396,193.588,114.59z M88.896,127.469
		l-25.484-24.203c2.657-15.309,10.638-29.084,22.628-39.062l24.417,9.896c5.999,2.432,8.782,9.299,6.17,15.25l-6.42,14.53
		c-0.63,1.41-1.05,2.89-1.26,4.41c-0.191,1.404,0.817,2.642,2.14,2.82c1.589,0.141,2.654-0.937,2.82-2.14
		c0.14-1.05,0.43-2.09,0.87-3.07l6.43-14.53c3.738-8.482-0.237-18.39-8.87-21.9l-21.671-8.791
		c10.818-7.493,24.04-11.794,37.89-11.669c0.004,0,0.008,0.001,0.012,0.001c0.003,0,0.006-0.001,0.009-0.001
		c11.039,0.102,21.839,2.961,31.417,8.315l-10.188,24.596c-4.027,9.693,2.232,20.572,12.657,21.945l9.082,1.193
		c6.292,0.834,10.576,6.804,9.313,13.047l-1.764,8.768c-1.387,6.849,1.76,13.585,7.617,16.958
		c-11.056,22.156-33.866,36.347-58.786,36.357c-7.34,0-14.538-1.227-21.446-3.64l23.726-26.19c6.733-7.443,5.297-19.11-3-24.69
		l-4.67-3.15c-1.11-0.75-2.73-0.43-3.47,0.67c-0.77,1.15-0.47,2.7,0.67,3.47l4.68,3.15c5.661,3.828,6.857,11.92,2.08,17.19
		l-24.972,27.576c-3.332-1.473-6.537-3.227-9.566-5.23l2.019-28.794C94.325,135.633,92.472,130.864,88.896,127.469z"/>
	<path d="M111.488,119.56c0.778,1.158,2.324,1.459,3.46,0.71c1.15-0.75,1.47-2.29,0.73-3.45l-0.01-0.01
		c-0.73-1.12-2.34-1.46-3.46-0.72c-1.106,0.711-1.517,2.255-0.72,3.46C111.488,119.55,111.488,119.55,111.488,119.56z"/>
</g>
</svg>
