<?xml version="1.0" encoding="utf-8"?>
<!-- Generator: Adobe Illustrator 24.0.0, SVG Export Plug-In . SVG Version: 6.00 Build 0)  -->
<svg version="1.1" id="Layer_1" xmlns="http://www.w3.org/2000/svg" xmlns:xlink="http://www.w3.org/1999/xlink" x="0px" y="0px"
	 viewBox="0 0 256 256" enable-background="new 0 0 256 256" xml:space="preserve">
<g>
	<path fill="#F0C020" d="M213.36,91.44c0,32.65-18.09,61.06-44.8,75.76v23.28c0,6.03-4.43,11.03-10.21,11.93
		c-0.61,0.09-1.23,0.14-1.86,0.14H99.96c-0.64,0-1.26-0.05-1.87-0.15c-5.78-0.89-10.21-5.89-10.21-11.92v-16
		c0-3.51-1.84-6.78-4.86-8.57c-25.95-15.35-43.19-43.87-42.5-76.36C41.5,44.17,78.21,6.8,123.56,5.08
		C172.83,3.21,213.36,42.59,213.36,91.44z"/>
	<path fill="#E7A523" d="M128.758,155.06c-27.134,0-49.21-22.076-49.21-49.21c0-25.127,39.353-72.914,43.84-78.28
		c2.798-3.347,7.946-3.342,10.74,0c4.487,5.366,43.84,53.152,43.84,78.28C177.969,132.984,155.893,155.06,128.758,155.06z"/>
	<path fill="#13BF6D" d="M170.969,105.85c0,23.312-18.898,42.21-42.21,42.21s-42.21-18.898-42.21-42.21s42.21-73.79,42.21-73.79
		S170.969,82.537,170.969,105.85z"/>
	<path fill="#EFEFEF" d="M158.35,202.41v22.81c0,5.52-4.48,10-10,10h-40.26c-5.52,0-10-4.48-10-10V202.4
		c0.61,0.1,1.23,0.15,1.87,0.15h56.53C157.12,202.55,157.74,202.5,158.35,202.41z"/>
	<path fill="#AFAFAF" d="M158.35,202.41v7.14H98.09v-7.15c0.61,0.1,1.23,0.15,1.87,0.15h56.53
		C157.12,202.55,157.74,202.5,158.35,202.41z"/>
	<path fill="#7D7B79" d="M146.88,235.221v10.759c0,2.76-2.24,5-5,5h-27.76c-2.76,0-5-2.24-5-5v-10.759H146.88z"/>
	<rect x="109.12" y="235.221" fill="#4C4944" width="37.76" height="7"/>
	<path fill="#F0C020" d="M247.031,98.616c-3.961-1.309-8.051-2.453-10.348-12.345c-2.115,9.112-5.504,10.745-10.348,12.345
		c7.9,2.61,9.092,6.933,10.348,12.345C238.848,101.632,242.429,100.137,247.031,98.616z"/>
	<path d="M234.092,111.563c-1.147-4.945-1.905-8.212-8.591-10.421c-2.43-0.803-2.424-4.25,0-5.051
		c4.025-1.33,6.684-2.209,8.591-10.422c0.633-2.73,4.546-2.737,5.181,0c1.95,8.399,4.863,9.193,8.591,10.421
		c2.43,0.803,2.424,4.25,0,5.051c-3.881,1.282-6.686,2.209-8.591,10.421C238.637,114.305,234.73,114.306,234.092,111.563z
		 M232.572,98.677c1.914,1.314,3.222,2.815,4.164,4.403c1.141-2.017,2.462-3.405,3.934-4.439c-1.411-1.01-2.778-2.44-3.977-4.601
		C235.507,96.173,234.121,97.615,232.572,98.677z"/>
	<path fill="#F0C020" d="M29.664,98.616c-3.961-1.309-8.051-2.453-10.348-12.345c-2.115,9.112-5.504,10.745-10.348,12.345
		c7.9,2.61,9.092,6.933,10.348,12.345C21.481,101.632,25.062,100.137,29.664,98.616z"/>
	<path d="M16.725,111.563c-1.147-4.945-1.905-8.212-8.591-10.421c-2.43-0.803-2.424-4.25,0-5.051
		c4.025-1.33,6.684-2.209,8.591-10.422c0.633-2.73,4.546-2.737,5.181,0c1.95,8.399,4.863,9.193,8.591,10.421
		c2.43,0.803,2.424,4.25,0,5.051c-3.881,1.282-6.686,2.209-8.591,10.421C21.27,114.305,17.363,114.306,16.725,111.563z
		 M15.206,98.677c1.914,1.314,3.222,2.815,4.164,4.403c1.141-2.017,2.462-3.405,3.934-4.439c-1.411-1.01-2.778-2.44-3.977-4.601
		C18.14,96.173,16.754,97.615,15.206,98.677z"/>
	<path fill="#F8E5B0" d="M156.486,192.975H116.27c-1.381,0-2.5-1.119-2.5-2.5s1.119-2.5,2.5-2.5h37.716v-24.99
		c0-2.667,1.421-5.146,3.708-6.469c27.653-15.996,41.096-37.282,41.096-65.074c0-39.619-32.237-71.852-71.861-71.852
		c-1.381,0-2.5-1.119-2.5-2.5s1.119-2.5,2.5-2.5c42.381,0,76.861,34.476,76.861,76.852c0,29.319-14.667,52.669-43.592,69.402
		c-0.748,0.433-1.212,1.253-1.212,2.141v27.49C158.986,191.856,157.867,192.975,156.486,192.975z M106.27,192.975h-3
		c-1.381,0-2.5-1.119-2.5-2.5s1.119-2.5,2.5-2.5h3c1.381,0,2.5,1.119,2.5,2.5S107.65,192.975,106.27,192.975z"/>
	<path fill="#76FFBB" d="M128.754,140.56c-4.814,0-9.479-0.973-13.863-2.891c-1.265-0.553-1.842-2.027-1.289-3.292
		s2.026-1.842,3.292-1.289c3.749,1.64,7.739,2.472,11.86,2.472c0.001,0,0.002,0,0.003,0c16.383,0,29.711-13.328,29.711-29.71
		c0-7.588-8.793-24.494-23.521-45.222c-0.8-1.126-0.536-2.687,0.59-3.486c1.125-0.799,2.686-0.536,3.486,0.59
		c9.129,12.85,24.445,36.187,24.445,48.119c0,19.139-15.571,34.71-34.71,34.71C128.757,140.56,128.756,140.56,128.754,140.56z
		 M105.843,131.9c-0.805-0.709-1.586-1.463-2.322-2.243c-0.948-1.004-0.902-2.586,0.102-3.534c1.004-0.948,2.585-0.903,3.534,0.102
		c0.631,0.669,1.301,1.316,1.991,1.924c1.036,0.913,1.136,2.493,0.224,3.528C108.459,132.713,106.879,132.813,105.843,131.9z"/>
	<path d="M81.74,168.06c2.25,1.33,3.64,3.79,3.64,6.42v15.99c0.008,6.518,4.302,12.048,10.21,13.909v20.841
		c0,6.392,4.831,11.674,11.03,12.406v8.355c0,4.13,3.37,7.5,7.5,7.5h27.76c4.13,0,7.5-3.37,7.5-7.5v-8.313
		c6.409-0.527,11.47-5.905,11.47-12.448v-20.839c5.909-1.859,10.21-7.391,10.21-13.911v-10.41c0-1.38-1.12-2.5-2.5-2.5
		c-1.38,0-2.5,1.12-2.5,2.5v10.41c-0.01,5.27-4.3,9.57-9.57,9.58H99.96c-5.27-0.01-9.57-4.31-9.58-9.58v-15.99
		c0-4.39-2.33-8.5-6.09-10.72c-26.739-15.821-42.079-45.091-41.27-74.16c0.959-45.234,37.888-82.08,83.91-82.08
		c12.88,0,25.24,2.84,36.73,8.44c1.22,0.59,2.75,0.05,3.34-1.16c0.599-1.239,0.099-2.736-1.15-3.34
		c-12.135-5.905-25.336-8.94-38.91-8.94h-0.01c-48.687,0-87.869,39.446-88.91,86.97C37.497,123.663,55.375,152.467,81.74,168.06z
		 M144.38,245.98c0,1.38-1.12,2.5-2.5,2.5h-27.76c-1.38,0-2.5-1.12-2.5-2.5v-8.26h32.76V245.98z M100.59,222.31h20.91
		c1.38,0,2.5-1.12,2.5-2.5s-1.12-2.5-2.5-2.5h-20.91v-12.26h55.26v20.17c-0.01,4.13-3.37,7.49-7.5,7.5c-26.267,0-14.171,0-40.26,0
		c-4.13-0.01-7.49-3.37-7.5-7.5V222.31z"/>
	<path d="M210.86,91.44c0,30.6-16.67,58.79-43.51,73.57c-11.648,6.444-23.97,9.12-26.74,9.12c-5.15-0.01-9.35-4.28-9.36-9.51
		v-14.133c23.584-1.285,42.22-20.828,42.22-44.637c-0.125-24.676-42.79-75.39-42.79-75.39c-0.987-1.171-2.819-1.221-3.84,0
		l-0.02,0.02c-0.87,1.05-5.52,6.68-11.52,14.72c-0.853,1.131-0.563,2.706,0.51,3.5c1.06,0.8,2.7,0.55,3.5-0.51
		c2.278-3.058,4.609-6.077,6.94-9.028V114.8L95.939,84.49c3.016-5.961,7.001-12.696,11.88-20.05c0.77-1.144,0.461-2.692-0.7-3.46
		c-1.11-0.74-2.73-0.41-3.46,0.7c-7.355,11.103-19.562,30.848-19.61,44.17c0,23.866,18.678,43.347,42.2,44.636v14.134
		c0.01,7.99,6.46,14.49,14.36,14.5c4.016,0,17.063-3.053,29.16-9.73c28.437-15.661,46.09-45.438,46.09-77.95
		c0-27.341-12.403-52.34-32.73-68.92c-1.03-0.84-2.68-0.67-3.51,0.36c-0.88,1.06-0.72,2.64,0.35,3.52
		C199.6,42.42,210.86,66.13,210.86,91.44z M131.25,39.128c6.689,8.459,12.924,17.045,18.01,24.671l-18.01,18.002V39.128z
		 M131.25,88.88l20.802-20.811c5.808,9.059,16.536,27.047,16.418,37.781c0,21.274-16.596,38.354-37.22,39.624V88.88z
		 M126.25,145.473c-20.748-1.285-37.2-18.481-37.2-39.623c-0.018-4.124,1.575-9.823,4.606-16.574l32.595,32.603V145.473z"/>
	<path d="M172.12,20.7c1.164,0.757,2.712,0.405,3.45-0.75c0.751-1.189,0.402-2.712-0.76-3.46c-1.13-0.72-2.73-0.36-3.45,0.76
		C170.62,18.41,170.96,19.96,172.12,20.7z"/>
	<path d="M113.45,56.24c0.8-1.12,0.53-2.69-0.6-3.48c-1.09-0.77-2.72-0.49-3.48,0.59c-0.8,1.13-0.53,2.69,0.59,3.49
		C111.119,57.65,112.658,57.352,113.45,56.24z"/>
</g>
</svg>
