<?xml version="1.0" encoding="utf-8"?>
<!-- Generator: Adobe Illustrator 18.0.0, SVG Export Plug-In . SVG Version: 6.00 Build 0)  -->
<!DOCTYPE svg PUBLIC "-//W3C//DTD SVG 1.1//EN" "http://www.w3.org/Graphics/SVG/1.1/DTD/svg11.dtd">
<svg version="1.1" id="Icon_Set" xmlns="http://www.w3.org/2000/svg" xmlns:xlink="http://www.w3.org/1999/xlink" x="0px" y="0px"
	 viewBox="0 0 256 256" style="enable-background:new 0 0 256 256;" xml:space="preserve">
<style type="text/css">
	.st0{fill:#4C4372;}
	.st1{fill:#F0C48A;}
	.st2{fill:#FD919E;}
	.st3{fill:#D3E6F8;}
	.st4{fill:#A4CFF2;}
	.st5{fill:#FFFFFF;}
	.st6{fill:#7BABF1;}
	.st7{fill:#E8677D;}
</style>
<g>
	<g>
		<circle class="st1" cx="128" cy="128" r="103.5"/>
	</g>
	<g>
		<circle class="st2" cx="128" cy="213.996" r="8.884"/>
	</g>
	<g>
		<path class="st0" d="M127.998,169.952c-0.624,0-1.252-0.193-1.791-0.595L74.245,130.62c-1.329-0.99-1.603-2.87-0.612-4.198
			c0.991-1.328,2.871-1.603,4.198-0.612l51.962,38.737c1.328,0.99,1.603,2.87,0.612,4.198
			C129.816,169.535,128.913,169.952,127.998,169.952z"/>
	</g>
	<g>
		<path class="st0" d="M128.002,169.952c-0.915,0-1.819-0.417-2.408-1.207c-0.99-1.328-0.716-3.208,0.612-4.198l51.963-38.737
			c1.328-0.989,3.208-0.717,4.198,0.612c0.99,1.328,0.716,3.208-0.612,4.198l-51.963,38.737
			C129.255,169.759,128.626,169.952,128.002,169.952z"/>
	</g>
	<g>
		<path class="st0" d="M128,208.111c-1.657,0-3-1.343-3-3v-138.2c0-1.657,1.343-3,3-3c1.657,0,3,1.343,3,3v138.2
			C131,206.769,129.657,208.111,128,208.111z"/>
	</g>
	<g>
		<circle class="st4" cx="179.962" cy="128.215" r="34.972"/>
	</g>
	<g>
		<path class="st0" d="M179.963,166.188c-20.938,0-37.973-17.034-37.973-37.973c0-20.938,17.034-37.972,37.973-37.972
			c20.938,0,37.972,17.034,37.972,37.972C217.935,149.153,200.9,166.188,179.963,166.188z M179.963,96.243
			c-17.63,0-31.973,14.343-31.973,31.972c0,17.63,14.343,31.973,31.973,31.973c17.629,0,31.972-14.343,31.972-31.973
			C211.935,110.586,197.592,96.243,179.963,96.243z"/>
	</g>
	<g>
		<path class="st2" d="M194.94,136.328h-29.956c-2.668,0-4.831,2.163-4.831,4.832v15.873c5.632,3.879,12.454,6.154,19.81,6.154
			s14.177-2.275,19.809-6.154V141.16C199.771,138.491,197.608,136.328,194.94,136.328z"/>
	</g>
	<g>
		<path class="st0" d="M179.963,166.188c-7.725,0-15.163-2.312-21.512-6.684c-0.813-0.56-1.298-1.483-1.298-2.471V141.16
			c0-4.318,3.513-7.832,7.831-7.832h29.956c4.318,0,7.831,3.514,7.831,7.832v15.873c0,0.987-0.485,1.911-1.298,2.471
			C195.125,163.876,187.687,166.188,179.963,166.188z M163.153,155.411c5.047,3.13,10.826,4.776,16.81,4.776
			s11.762-1.646,16.809-4.776V141.16c0-1.01-0.821-1.832-1.831-1.832h-29.956c-1.01,0-1.831,0.822-1.831,1.832V155.411z"/>
	</g>
	<g>
		<path class="st3" d="M179.963,143.242L179.963,143.242c-2.404,0-4.352-1.949-4.352-4.353v-11.855h8.704v11.855
			C184.314,141.293,182.366,143.242,179.963,143.242z"/>
	</g>
	<g>
		<path class="st0" d="M179.963,146.242c-4.055,0-7.353-3.298-7.353-7.353v-11.855c0-1.657,1.343-3,3-3h8.704c1.657,0,3,1.343,3,3
			v11.855C187.314,142.944,184.017,146.242,179.963,146.242z M178.61,130.034v8.855c0,0.746,0.606,1.353,1.353,1.353
			c0.745,0,1.352-0.606,1.352-1.353v-8.855H178.61z"/>
	</g>
	<g>
		<path class="st5" d="M179.963,132.203L179.963,132.203c-6.338,0-11.475-5.137-11.475-11.475v-6.259
			c0-6.337,5.137-11.475,11.475-11.475l0,0c6.337,0,11.475,5.138,11.475,11.475v6.259
			C191.437,127.066,186.3,132.203,179.963,132.203z"/>
	</g>
	<g>
		<path class="st0" d="M179.963,135.203c-7.981,0-14.475-6.493-14.475-14.475v-6.259c0-7.981,6.493-14.475,14.475-14.475
			s14.475,6.493,14.475,14.475v6.259C194.438,128.71,187.944,135.203,179.963,135.203z M179.963,105.995
			c-4.673,0-8.475,3.802-8.475,8.475v6.259c0,4.673,3.802,8.475,8.475,8.475s8.475-3.802,8.475-8.475v-6.259
			C188.438,109.797,184.636,105.995,179.963,105.995z"/>
	</g>
	<g>
		<circle class="st4" cx="128" cy="68.092" r="34.972"/>
	</g>
	<g>
		<path class="st0" d="M128,106.063c-20.938,0-37.972-17.034-37.972-37.972S107.063,30.12,128,30.12s37.972,17.034,37.972,37.972
			S148.938,106.063,128,106.063z M128,36.12c-17.629,0-31.972,14.343-31.972,31.972s14.342,31.972,31.972,31.972
			c17.629,0,31.972-14.343,31.972-31.972S145.629,36.12,128,36.12z"/>
	</g>
	<g>
		<path class="st2" d="M142.977,76.205h-29.955c-2.668,0-4.832,2.163-4.832,4.831v15.873c5.632,3.879,12.454,6.154,19.809,6.154
			c7.355,0,14.177-2.275,19.809-6.154V81.036C147.809,78.368,145.645,76.205,142.977,76.205z"/>
	</g>
	<g>
		<path class="st0" d="M128,106.063c-7.724,0-15.162-2.312-21.511-6.684c-0.813-0.56-1.298-1.483-1.298-2.471V81.036
			c0-4.318,3.513-7.831,7.832-7.831h29.955c4.318,0,7.831,3.513,7.831,7.831v15.873c0,0.987-0.485,1.911-1.298,2.471
			C143.162,103.752,135.724,106.063,128,106.063z M111.191,95.287c5.047,3.13,10.826,4.776,16.809,4.776
			c5.983,0,11.762-1.646,16.809-4.776V81.036c0-1.01-0.821-1.831-1.831-1.831h-29.955c-1.01,0-1.832,0.821-1.832,1.831V95.287z"/>
	</g>
	<g>
		<path class="st3" d="M128,83.118L128,83.118c-2.403,0-4.352-1.948-4.352-4.352V66.911h8.704v11.855
			C132.352,81.17,130.403,83.118,128,83.118z"/>
	</g>
	<g>
		<path class="st0" d="M128,86.118c-4.054,0-7.352-3.298-7.352-7.352V66.911c0-1.657,1.343-3,3-3h8.704c1.657,0,3,1.343,3,3v11.855
			C135.352,82.82,132.054,86.118,128,86.118z M126.648,69.911v8.855c0,0.745,0.606,1.352,1.352,1.352
			c0.745,0,1.352-0.606,1.352-1.352v-8.855H126.648z"/>
	</g>
	<g>
		<path class="st5" d="M128,72.08L128,72.08c-6.337,0-11.475-5.138-11.475-11.475v-6.259c0-6.337,5.137-11.475,11.475-11.475l0,0
			c6.337,0,11.475,5.138,11.475,11.475v6.259C139.475,66.942,134.337,72.08,128,72.08z"/>
	</g>
	<g>
		<path class="st0" d="M128,75.08c-7.981,0-14.475-6.493-14.475-14.475v-6.259c0-7.981,6.493-14.475,14.475-14.475
			s14.475,6.493,14.475,14.475v6.259C142.475,68.587,135.981,75.08,128,75.08z M128,45.872c-4.673,0-8.475,3.802-8.475,8.475v6.259
			c0,4.673,3.802,8.475,8.475,8.475s8.475-3.802,8.475-8.475v-6.259C136.475,49.674,132.673,45.872,128,45.872z"/>
	</g>
	<g>
		<circle class="st4" cx="76.037" cy="128.215" r="34.972"/>
	</g>
	<g>
		<path class="st0" d="M76.038,166.188c-20.938,0-37.972-17.034-37.972-37.973c0-20.938,17.034-37.972,37.972-37.972
			c20.938,0,37.972,17.034,37.972,37.972C114.009,149.153,96.975,166.188,76.038,166.188z M76.038,96.243
			c-17.629,0-31.972,14.343-31.972,31.972c0,17.63,14.343,31.973,31.972,31.973s31.972-14.343,31.972-31.973
			C108.009,110.586,93.667,96.243,76.038,96.243z"/>
	</g>
	<g>
		<path class="st2" d="M91.015,136.328H61.06c-2.668,0-4.831,2.163-4.831,4.832v15.873c5.632,3.879,12.454,6.154,19.809,6.154
			c7.355,0,14.177-2.275,19.809-6.154V141.16C95.847,138.491,93.684,136.328,91.015,136.328z"/>
	</g>
	<g>
		<path class="st0" d="M76.038,166.188c-7.724,0-15.162-2.312-21.511-6.684c-0.813-0.56-1.298-1.483-1.298-2.471V141.16
			c0-4.318,3.513-7.832,7.831-7.832h29.956c4.318,0,7.832,3.514,7.832,7.832v15.873c0,0.987-0.485,1.911-1.298,2.471
			C91.199,163.876,83.761,166.188,76.038,166.188z M59.229,155.411c5.047,3.13,10.826,4.776,16.809,4.776
			c5.983,0,11.762-1.646,16.809-4.776V141.16c0-1.01-0.822-1.832-1.832-1.832H61.06c-1.01,0-1.831,0.822-1.831,1.832V155.411z"/>
	</g>
	<g>
		<path class="st3" d="M76.038,143.242L76.038,143.242c-2.404,0-4.352-1.949-4.352-4.353v-11.855h8.704v11.855
			C80.39,141.293,78.441,143.242,76.038,143.242z"/>
	</g>
	<g>
		<path class="st0" d="M76.038,146.242c-4.054,0-7.352-3.298-7.352-7.353v-11.855c0-1.657,1.343-3,3-3h8.704c1.657,0,3,1.343,3,3
			v11.855C83.39,142.944,80.091,146.242,76.038,146.242z M74.686,130.034v8.855c0,0.746,0.606,1.353,1.352,1.353
			s1.352-0.606,1.352-1.353v-8.855H74.686z"/>
	</g>
	<g>
		<path class="st5" d="M76.038,132.203L76.038,132.203c-6.337,0-11.475-5.137-11.475-11.475v-6.259
			c0-6.337,5.137-11.475,11.475-11.475l0,0c6.337,0,11.475,5.138,11.475,11.475v6.259C87.512,127.066,82.374,132.203,76.038,132.203
			z"/>
	</g>
	<g>
		<path class="st0" d="M76.038,135.203c-7.981,0-14.475-6.493-14.475-14.475v-6.259c0-7.981,6.493-14.475,14.475-14.475
			s14.475,6.493,14.475,14.475v6.259C90.512,128.71,84.019,135.203,76.038,135.203z M76.038,105.995
			c-4.673,0-8.475,3.802-8.475,8.475v6.259c0,4.673,3.802,8.475,8.475,8.475s8.475-3.802,8.475-8.475v-6.259
			C84.512,109.797,80.71,105.995,76.038,105.995z"/>
	</g>
	<g>
		<path class="st0" d="M128,225.88c-6.553,0-11.884-5.331-11.884-11.884c0-6.554,5.331-11.885,11.884-11.885
			c6.554,0,11.885,5.331,11.885,11.885C139.885,220.549,134.554,225.88,128,225.88z M128,208.111c-3.244,0-5.884,2.64-5.884,5.885
			c0,3.244,2.64,5.884,5.884,5.884c3.245,0,5.885-2.64,5.885-5.884C133.885,210.751,131.245,208.111,128,208.111z"/>
	</g>
	<g>
		<g>
			<circle class="st2" cx="156.461" cy="198.022" r="8.884"/>
		</g>
		<g>
			<path class="st0" d="M156.461,209.906c-6.553,0-11.884-5.331-11.884-11.884s5.331-11.884,11.884-11.884
				s11.884,5.331,11.884,11.884S163.014,209.906,156.461,209.906z M156.461,192.139c-3.244,0-5.884,2.64-5.884,5.884
				s2.64,5.884,5.884,5.884s5.884-2.64,5.884-5.884S159.705,192.139,156.461,192.139z"/>
		</g>
		<g>
			<circle class="st2" cx="99.539" cy="198.022" r="8.884"/>
		</g>
		<g>
			<path class="st0" d="M99.539,209.906c-6.553,0-11.884-5.331-11.884-11.884s5.331-11.884,11.884-11.884
				s11.884,5.331,11.884,11.884S106.092,209.906,99.539,209.906z M99.539,192.139c-3.245,0-5.884,2.64-5.884,5.884
				s2.64,5.884,5.884,5.884s5.884-2.64,5.884-5.884S102.784,192.139,99.539,192.139z"/>
		</g>
	</g>
	<g>
		<path class="st0" d="M156.461,192.139c-1.657,0-3-1.343-3-3v-7.327h-50.922v7.327c0,1.657-1.343,3-3,3s-3-1.343-3-3v-10.327
			c0-1.657,1.343-3,3-3h56.922c1.657,0,3,1.343,3,3v10.327C159.461,190.796,158.118,192.139,156.461,192.139z"/>
	</g>
</g>
</svg>
