<?xml version="1.0" encoding="utf-8"?>
<!-- Generator: Adobe Illustrator 21.0.0, SVG Export Plug-In . SVG Version: 6.00 Build 0)  -->
<svg version="1.1" id="Layer_1" xmlns="http://www.w3.org/2000/svg" xmlns:xlink="http://www.w3.org/1999/xlink" x="0px" y="0px"
	 viewBox="0 0 64 64" style="enable-background:new 0 0 64 64;" xml:space="preserve">
<style type="text/css">
	.st0{fill:#455A64;stroke:#37474F;stroke-linecap:round;stroke-linejoin:round;stroke-miterlimit:10;}
	.st1{fill:#78909C;stroke:#37474F;stroke-linecap:round;stroke-linejoin:round;stroke-miterlimit:10;}
	.st2{fill:#ECEFF1;stroke:#37474F;stroke-linecap:round;stroke-linejoin:round;stroke-miterlimit:10;}
	.st3{fill:none;stroke:#FFFFFF;stroke-linecap:round;stroke-linejoin:round;stroke-miterlimit:10;}
	.st4{fill:#FFCA28;stroke:#37474F;stroke-linecap:round;stroke-linejoin:round;stroke-miterlimit:10;}
	.st5{fill:none;stroke:#37474F;stroke-linecap:round;stroke-linejoin:round;stroke-miterlimit:10;}
	.st6{fill:#B0BEC5;}
	.st7{fill:#37474F;}
	.st8{fill:#455A64;}
	.st9{fill:#9CCC65;stroke:#37474F;stroke-linecap:round;stroke-linejoin:round;stroke-miterlimit:10;}
	.st10{fill:none;stroke:#C5E1A5;stroke-linecap:round;stroke-linejoin:round;stroke-miterlimit:10;}
	.st11{fill:#26C6DA;stroke:#37474F;stroke-linecap:round;stroke-linejoin:round;stroke-miterlimit:10;}
	.st12{fill:#EF5350;stroke:#37474F;stroke-linecap:round;stroke-linejoin:round;stroke-miterlimit:10;}
	.st13{fill:#B0BEC5;stroke:#37474F;stroke-linecap:round;stroke-linejoin:round;stroke-miterlimit:10;}
	.st14{fill:none;stroke:#EF9A9A;stroke-linecap:round;stroke-linejoin:round;stroke-miterlimit:10;}
	.st15{fill:none;stroke:#FFE082;stroke-linecap:round;stroke-linejoin:round;stroke-miterlimit:10;}
	.st16{fill:#D32F2F;stroke:#37474F;stroke-linecap:round;stroke-linejoin:round;stroke-miterlimit:10;}
	.st17{fill:#0097A7;stroke:#37474F;stroke-linecap:round;stroke-linejoin:round;stroke-miterlimit:10;}
	.st18{fill:#689F38;stroke:#37474F;stroke-linecap:round;stroke-linejoin:round;stroke-miterlimit:10;}
	.st19{fill:#FFA000;stroke:#37474F;stroke-linecap:round;stroke-linejoin:round;stroke-miterlimit:10;}
	.st20{fill:#FFA000;}
	.st21{fill:#FF6F00;}
	.st22{fill:#D32F2F;}
	.st23{fill:#0097A7;}
	.st24{fill:none;stroke:#80DEEA;stroke-linecap:round;stroke-linejoin:round;stroke-miterlimit:10;}
	.st25{fill:#689F38;}
	.st26{fill:none;stroke:#B0BEC5;stroke-linecap:round;stroke-linejoin:round;stroke-miterlimit:10;}
	.st27{fill:#78909C;stroke:#37474F;stroke-miterlimit:10;}
	.st28{fill:#78909C;}
	.st29{fill:#B71C1C;}
	.st30{fill:#F57F17;}
	.st31{fill:#006064;}
	.st32{fill:#26A69A;stroke:#37474F;stroke-linecap:round;stroke-linejoin:round;stroke-miterlimit:10;}
</style>
<g>
	<path class="st19" d="M46.7,4.6c-5,0.7-9.1,4.6-10,9.6c-0.7,4,0.5,7.6,2.9,10.3h-3.1v3c0,0.6,0.4,1,1,1l10.7,0
		c6.4,0,11.9-4.8,12.3-11.2C61,9.7,54.4,3.5,46.7,4.6z"/>
	<path class="st16" d="M29.5,39.5h-16c-5.5,0-10,4.5-10,10V61c0,1.4,1.1,2.5,2.5,2.5h31c1.4,0,2.5-1.1,2.5-2.5V49.5
		C39.5,44,35,39.5,29.5,39.5z"/>
	<path class="st12" d="M29.5,35.5h-16c-5.5,0-10,4.5-10,10V57c0,1.4,1.1,2.5,2.5,2.5h31c1.4,0,2.5-1.1,2.5-2.5V45.5
		C39.5,40,35,35.5,29.5,35.5z"/>
	<path class="st14" d="M5.5,45.5c0-4.4,3.6-8,8-8"/>
	<line class="st2" x1="11.5" y1="59.5" x2="11.5" y2="48.5"/>
	<line class="st2" x1="31.5" y1="59.5" x2="31.5" y2="48.5"/>
	<circle class="st2" cx="21.5" cy="23.5" r="12"/>
	<line class="st5" x1="26.1" y1="28.1" x2="16.9" y2="28.1"/>
	<path class="st1" d="M31.3,16.6L9.8,20.8c1.2-5.3,6-9.3,11.7-9.3C25.6,11.5,29.1,13.5,31.3,16.6z"/>
	<path class="st1" d="M29.3,14.4L29.3,14.4c2.5,2.2,4.2,5.4,4.2,9.1h0c-2.3,0-4.2-1.9-4.2-4.2V14.4z"/>
	<polygon class="st4" points="27.6,45.5 21.6,41.5 15.6,45.5 15.6,35.5 27.6,35.5 	"/>
	<polygon class="st2" points="21.6,41.5 15.6,35.5 27.6,35.5 	"/>
	<path class="st4" d="M48.5,0.5c-6.6,0-12,5.4-12,12c0,3.5,1.5,6.6,3.9,8.8l-3.9,3.2h12c6.6,0,12-5.4,12-12S55.1,0.5,48.5,0.5z"/>
	<path class="st15" d="M38.5,12.5c0-5.5,4.5-10,10-10"/>
	<g>
		<path class="st2" d="M48.5,14.5L48.5,14.5c-0.8,0-1.5-0.7-1.5-1.5V7c0-0.8,0.7-1.5,1.5-1.5h0C49.3,5.5,50,6.2,50,7v6
			C50,13.8,49.3,14.5,48.5,14.5z"/>
		<circle class="st2" cx="48.5" cy="18" r="1.5"/>
	</g>
</g>
</svg>
