<?xml version="1.0" encoding="iso-8859-1"?>
<!-- Generator: Adobe Illustrator 19.0.0, SVG Export Plug-In . SVG Version: 6.00 Build 0)  -->
<svg xmlns="http://www.w3.org/2000/svg" xmlns:xlink="http://www.w3.org/1999/xlink" version="1.1" id="Capa_1" x="0px" y="0px" viewBox="0 0 512 512" style="enable-background:new 0 0 512 512;" xml:space="preserve">
<polygon style="fill:#FF7040;" points="443.687,283.862 313.999,265.017 256,147.5 198.265,316.034 256,443.518 371.996,504.5   349.843,375.336 "/>
<polygon style="fill:#FF903D;" points="198.001,265.017 68.313,283.862 162.157,375.336 140.004,504.5 256,443.518 256,147.5 "/>
<polygon style="fill:#FFB03B;" points="379.218,304.809 294.077,292.437 256,215.286 226,364.862 256,409.624 332.152,449.66   317.608,364.862 "/>
<g>
	<polygon style="fill:#FFC46C;" points="217.923,292.437 132.783,304.809 194.392,364.862 179.848,449.66 256,409.624 256,215.286     "/>
	<polygon style="fill:#FFC46C;" points="256,375.73 219.691,394.819 226.626,354.389 197.252,325.755 237.846,319.856 256,283.072    274.155,319.856 314.749,325.755 285.374,354.389 292.309,394.819  "/>
</g>
<polygon style="fill:#FFA688;" points="121,7.5 121,87.5 161,96.389 201,51.944 161,7.5 "/>
<polygon style="fill:#FF7472;" points="391,7.5 351,7.5 311,51.944 351,96.389 391,87.5 "/>
<polygon style="fill:#FF415D;" points="161,7.5 161,96.389 256,117.5 351,96.389 351,7.5 "/>
<path d="M262.726,211.967c-1.264-2.56-3.871-4.181-6.726-4.181c-2.855,0-5.462,1.621-6.726,4.181l-38.076,77.15  c-1.833,3.714-0.308,8.211,3.406,10.045c3.717,1.834,8.212,0.308,10.045-3.406L256,232.232l31.352,63.523  c1.093,2.213,3.204,3.748,5.647,4.103l70.102,10.187l-50.728,49.446c-1.768,1.723-2.574,4.206-2.156,6.639l11.975,69.82  l-62.701-32.965c-2.186-1.148-4.795-1.148-6.98,0L189.81,435.95l11.975-69.82c0.418-2.433-0.389-4.916-2.156-6.639L148.9,310.045  l40.101-5.828c4.1-0.596,6.939-4.401,6.344-8.5c-0.596-4.1-4.412-6.942-8.5-6.343l-55.14,8.013c-2.825,0.41-5.173,2.389-6.055,5.104  s-0.146,5.695,1.897,7.688l58.785,57.301l-13.877,80.912c-0.483,2.813,0.674,5.657,2.983,7.335c2.309,1.677,5.37,1.899,7.898,0.571  L256,418.097l72.662,38.202c1.098,0.577,2.296,0.861,3.489,0.861c1.556,0,3.103-0.483,4.409-1.432  c2.31-1.678,3.467-4.522,2.983-7.335l-13.877-80.912l58.786-57.302c2.044-1.993,2.779-4.973,1.897-7.688s-3.229-4.694-6.055-5.104  l-81.238-11.805L262.726,211.967z"/>
<path d="M450.819,281.544c-0.882-2.715-3.229-4.694-6.055-5.104l-125.785-18.278L263.5,145.75v-22.234l89.005-19.779  c0.02-0.004,40.122-8.916,40.122-8.916c3.432-0.762,5.873-3.806,5.873-7.321v-80c0-4.142-3.357-7.5-7.5-7.5H121  c-4.143,0-7.5,3.358-7.5,7.5v80c0,3.515,2.441,6.559,5.873,7.321l40.102,8.912c0.02,0.004,89.025,19.783,89.025,19.783v22.234  l-55.479,112.412L67.235,276.44c-2.825,0.41-5.173,2.389-6.055,5.104c-0.883,2.715-0.146,5.695,1.897,7.688l91.021,88.722  l-21.486,125.278c-0.483,2.813,0.674,5.657,2.983,7.335c2.309,1.678,5.37,1.899,7.898,0.571L256,451.991l112.506,59.148  c1.098,0.577,2.296,0.861,3.489,0.861c1.555,0,3.103-0.483,4.409-1.433c2.31-1.678,3.467-4.521,2.983-7.335l-21.486-125.278  l91.021-88.722C450.966,287.24,451.702,284.259,450.819,281.544z M383.5,81.484l-25,5.555V15h25V81.484z M128.5,15h215v75.373  L256,109.817l-87.5-19.444V37.5c0-4.142-3.357-7.5-7.5-7.5s-7.5,3.358-7.5,7.5v49.539l-25-5.555V15z M344.607,369.965  c-1.768,1.723-2.574,4.206-2.156,6.638l19.584,114.187L259.49,436.879c-1.093-0.574-2.291-0.861-3.49-0.861  c-1.199,0-2.397,0.287-3.49,0.861L149.965,490.79l19.584-114.187c0.418-2.433-0.389-4.915-2.156-6.638l-82.962-80.867l114.648-16.66  c2.443-0.355,4.555-1.889,5.647-4.103L256,164.446l51.273,103.89c1.093,2.213,3.204,3.748,5.647,4.103l114.648,16.66  L344.607,369.965z"/>
<g>
</g>
<g>
</g>
<g>
</g>
<g>
</g>
<g>
</g>
<g>
</g>
<g>
</g>
<g>
</g>
<g>
</g>
<g>
</g>
<g>
</g>
<g>
</g>
<g>
</g>
<g>
</g>
<g>
</g>
</svg>
