<svg xmlns="http://www.w3.org/2000/svg" viewBox="0 0 64 64"><defs><style>.cls-1{fill:#4ea0ca;}.cls-2{fill:#ffd24f;}.cls-3{fill:#fc9b28;}.cls-4{fill:#ffd7a3;}.cls-5{fill:#ffe1b2;}.cls-6{fill:#fdc88e;}.cls-7{fill:#00b39b;}.cls-8{fill:#b06e53;}.cls-9{fill:#ffb422;}.cls-10{fill:#29394a;}</style></defs><title>11-engineer</title><g id="_11-engineer" data-name="11-engineer"><path class="cls-1" d="M18,44.12V63H13V56.62C13,50.23,15.42,46.39,18,44.12Z"/><path class="cls-1" d="M32,48v4H22V41.64A11.2,11.2,0,0,1,24,41h1A7,7,0,0,0,32,48Z"/><path class="cls-1" d="M42,41.64V52H32V48a7,7,0,0,0,7-7h1A11.2,11.2,0,0,1,42,41.64Z"/><path class="cls-1" d="M51,56.62V63H46V44.12C48.58,46.39,51,50.23,51,56.62Z"/><rect class="cls-2" x="24" y="59" width="16" height="4"/><path class="cls-3" d="M46,44.12V63H40V59H24v4H18V44.12a14.413,14.413,0,0,1,4-2.48V52H42V41.64A14.413,14.413,0,0,1,46,44.12Z"/><path class="cls-4" d="M37,37c0,4,2,4,2,4a7,7,0,0,1-14,0s2,0,2-4l.01-.01A8.415,8.415,0,0,0,32,39a8.415,8.415,0,0,0,4.99-2.01Z"/><path class="cls-5" d="M43.5,28c-.14.35-.29.7-.46,1.04a23.8,23.8,0,0,1-2.21,3.84.834.834,0,0,1-.08.12,18.726,18.726,0,0,1-3.76,3.99A8.415,8.415,0,0,1,32,39a8.415,8.415,0,0,1-4.99-2.01,18.557,18.557,0,0,1-3.84-4.11,23.8,23.8,0,0,1-2.21-3.84c-.17-.34-.32-.69-.46-1.04a19.709,19.709,0,0,1-1.46-6c-.03-.34-.04-.67-.04-1V19H30a6.889,6.889,0,0,0,5,4V19a6.889,6.889,0,0,0,5,4V19h5v2c0,.33-.01.66-.04,1A19.709,19.709,0,0,1,43.5,28Z"/><path class="cls-6" d="M20.5,28H19.19A3.1,3.1,0,0,1,16,25V24a2.069,2.069,0,0,1,2.13-2h.91A19.709,19.709,0,0,0,20.5,28Z"/><path class="cls-6" d="M48,24v1a3.1,3.1,0,0,1-3.19,3H43.5a19.709,19.709,0,0,0,1.46-6h.91A2.069,2.069,0,0,1,48,24Z"/><path class="cls-7" d="M23.17,32.88,23,33l-2,2-.12.03a4.014,4.014,0,0,0-2.91-2.91L18,32l2.96-2.96A23.8,23.8,0,0,0,23.17,32.88Z"/><path class="cls-7" d="M46,32l.03.12a4.014,4.014,0,0,0-2.91,2.91L43,35l-2-2-.17-.12a23.8,23.8,0,0,0,2.21-3.84Z"/><path class="cls-8" d="M20.88,35.03A3.906,3.906,0,0,1,21,36c0,2.21-1.86,3.46-4,4l-4,1V36a4,4,0,0,1,4-4,3.906,3.906,0,0,1,.97.12A4.014,4.014,0,0,1,20.88,35.03Z"/><path class="cls-8" d="M51,36v5l-4-1c-2.14-.54-4-1.79-4-4a3.906,3.906,0,0,1,.12-.97,4.014,4.014,0,0,1,2.91-2.91A3.906,3.906,0,0,1,47,32,4,4,0,0,1,51,36Z"/><path class="cls-8" d="M35,19v4a6.889,6.889,0,0,1-5-4Z"/><path class="cls-3" d="M48,19H16a3.757,3.757,0,0,1,2.04-2.93C20.78,14.24,26,13,32,13s11.22,1.24,13.96,3.07A3.757,3.757,0,0,1,48,19Z"/><path class="cls-9" d="M40,3.52A13.953,13.953,0,0,1,46,15v1l-.04.07C43.22,14.24,38,13,32,13s-11.22,1.24-13.96,3.07L18,16V15A14.051,14.051,0,0,1,29,1.32V9h6V1.32A13.9,13.9,0,0,1,40,3.52Z"/><path class="cls-8" d="M40,19v4a6.889,6.889,0,0,1-5-4Z"/><path class="cls-2" d="M35,1.32V9H29V1.32a14.223,14.223,0,0,1,6,0Z"/><path class="cls-6" d="M39,41s-2,0-2-4l-.01-.01A8.415,8.415,0,0,1,32,39a8.415,8.415,0,0,1-4.99-2.01L27,37l9.425,9.425A6.982,6.982,0,0,0,39,41Z"/><rect class="cls-10" x="21" y="54" width="2" height="2"/><rect class="cls-10" x="41" y="54" width="2" height="2"/><path class="cls-10" d="M46.757,40.97l4,1A1,1,0,0,0,52,41V36a4.971,4.971,0,0,0-5.552-4.966L44.414,29h.4A4.1,4.1,0,0,0,49,25V24a3.057,3.057,0,0,0-3-2.987V20h2a1,1,0,0,0,1-1,4.326,4.326,0,0,0-2-3.4V15A14.961,14.961,0,0,0,41,3.037V3h-.047c-.129-.1-.245-.206-.378-.3A14.81,14.81,0,0,0,35.211.342a15.3,15.3,0,0,0-6.426,0A14.787,14.787,0,0,0,23.43,2.7c-.135.093-.252.2-.382.3H23v.038A14.96,14.96,0,0,0,17,15v.6A4.329,4.329,0,0,0,15,19a1,1,0,0,0,1,1h2v1.013A3.057,3.057,0,0,0,15,24v1a4.1,4.1,0,0,0,4.19,4h.4l-2.034,2.034A4.971,4.971,0,0,0,12,36v5a1,1,0,0,0,1.243.97l4-1C20.267,40.207,22,38.4,22,36a5.018,5.018,0,0,0-.034-.552l1.076-1.076a19.279,19.279,0,0,0,2.941,3.062c-.085,1.9-.7,2.522-.983,2.566H24a1.021,1.021,0,0,0-.183.017,12.111,12.111,0,0,0-2.2.7,15.444,15.444,0,0,0-4.281,2.654C14.9,45.512,12,49.55,12,56.62V63a1,1,0,0,0,1,1H51a1,1,0,0,0,1-1V56.62c0-7.07-2.9-11.108-5.339-13.251a15.444,15.444,0,0,0-4.281-2.654,12.111,12.111,0,0,0-2.2-.7A1.021,1.021,0,0,0,40,40l-.944,0c-.34-.045-.954-.663-1.039-2.567a19.231,19.231,0,0,0,2.942-3.062l1.075,1.075A5.034,5.034,0,0,0,42,36C42,38.4,43.733,40.207,46.757,40.97Zm-3.44-10.239,1.038,1.038a4.984,4.984,0,0,0-1.586,1.586l-.63-.63C42.565,32.073,42.96,31.406,43.317,30.731ZM50,36v3.719l-2.755-.689C46.033,38.725,44,37.924,44,36a2.953,2.953,0,0,1,.09-.726,3.005,3.005,0,0,1,2.184-2.184l.006,0A2.9,2.9,0,0,1,47,33,3,3,0,0,1,50,36ZM47,24v1a2.087,2.087,0,0,1-2.067,1.989A20.264,20.264,0,0,0,45.854,23h.016A1.073,1.073,0,0,1,47,24ZM34,2.171V8H30V2.171A13.31,13.31,0,0,1,34,2.171ZM23,5.654V10h2V4.07a12.775,12.775,0,0,1,3-1.443V9a1,1,0,0,0,1,1h6a1,1,0,0,0,1-1V2.627A12.774,12.774,0,0,1,39,4.07V10h2V5.653a12.948,12.948,0,0,1,3.962,8.729C41.806,12.879,37.137,12,32,12s-9.808.879-12.962,2.381A12.949,12.949,0,0,1,23,5.654ZM18.6,16.9C21.275,15.112,26.412,14,32,14s10.725,1.112,13.408,2.9a4.815,4.815,0,0,1,1.22,1.1H17.372A4.843,4.843,0,0,1,18.6,16.9ZM39,20v1.609A6.144,6.144,0,0,1,36.787,20Zm-5,0v1.609A6.144,6.144,0,0,1,31.787,20ZM19.645,31.769,20.7,30.715q.54,1.021,1.177,2l-.645.645A4.984,4.984,0,0,0,19.645,31.769ZM17,25V24a1.073,1.073,0,0,1,1.13-1h.017a20.212,20.212,0,0,0,.921,3.989A2.087,2.087,0,0,1,17,25Zm-.243,14.03L14,39.719V36a3,3,0,0,1,3-3,2.9,2.9,0,0,1,.72.088l.006,0a3.009,3.009,0,0,1,2.186,2.19A2.964,2.964,0,0,1,20,36C20,37.924,17.967,38.725,16.757,39.03Zm19.394-.271a3.862,3.862,0,0,0,1.8,2.938,6,6,0,0,1-11.912,0,3.862,3.862,0,0,0,1.8-2.938A8.377,8.377,0,0,0,32,40,8.385,8.385,0,0,0,36.151,38.759ZM42,53a1,1,0,0,0,1-1V43.239A13.336,13.336,0,0,1,45,44.6V62H41V59a1,1,0,0,0-1-1H24a1,1,0,0,0-1,1v3H19V44.6a13.336,13.336,0,0,1,2-1.363V52a1,1,0,0,0,1,1Zm-3,9H25V60H39ZM24.071,42.008A8.007,8.007,0,0,0,31,48.931V51H23V42.328A10.04,10.04,0,0,1,24.071,42.008ZM14,56.62a15.848,15.848,0,0,1,3-9.949V62H14Zm36,0V62H47V46.671A15.848,15.848,0,0,1,50,56.62ZM41,42.328V51H33V48.931a8.008,8.008,0,0,0,6.929-6.923A10.408,10.408,0,0,1,41,42.328Zm-1.063-9.91A17.855,17.855,0,0,1,36.379,36.2,7.457,7.457,0,0,1,32,38a7.465,7.465,0,0,1-4.385-1.806A17.663,17.663,0,0,1,23.987,32.3a22.973,22.973,0,0,1-2.133-3.71c-.157-.315-.3-.64-.427-.968a18.623,18.623,0,0,1-1.391-5.714C20.008,21.6,20,21.3,20,21V20h9.363a8.154,8.154,0,0,0,5.394,3.97A1,1,0,0,0,36,23v-.953a8.794,8.794,0,0,0,3.757,1.923A1,1,0,0,0,41,23V20h3v1c0,.3-.008.6-.038.934a18.6,18.6,0,0,1-1.39,5.694c-.13.325-.269.65-.442,1A22.769,22.769,0,0,1,40.013,32.3.847.847,0,0,0,39.937,32.418Z"/><path class="cls-10" d="M32,33a3,3,0,0,1-3-3H27a5,5,0,0,0,10,0H35A3,3,0,0,1,32,33Z"/></g></svg>