<?xml version="1.0" encoding="iso-8859-1"?>
<!-- Generator: Adobe Illustrator 19.0.0, SVG Export Plug-In . SVG Version: 6.00 Build 0)  -->
<svg xmlns="http://www.w3.org/2000/svg" xmlns:xlink="http://www.w3.org/1999/xlink" version="1.1" id="Layer_1" x="0px" y="0px" viewBox="0 0 511.999 511.999" style="enable-background:new 0 0 511.999 511.999;" xml:space="preserve">
<path style="fill:#FED9A8;" d="M227.323,315.126c-5.659,3.355-12.095,5.159-18.702,5.159h-27.21c-6.733,0-13.287-1.879-19.026-5.359  l-2.501,23.527l-12.76,7.656l47.719,32.916l47.72-32.916l-12.76-7.656L227.323,315.126z"/>
<path style="fill:#F2C18B;" d="M178.837,320.193c-0.766-0.055-1.529-0.137-2.288-0.239c-0.081-0.011-0.162-0.019-0.243-0.031  c-0.733-0.105-1.461-0.234-2.185-0.383c-0.105-0.021-0.209-0.041-0.313-0.063c-0.704-0.151-1.403-0.325-2.098-0.517  c-0.119-0.033-0.238-0.065-0.357-0.099c-0.68-0.196-1.353-0.411-2.021-0.646c-0.127-0.045-0.255-0.09-0.383-0.136  c-0.657-0.239-1.308-0.497-1.952-0.774c-0.13-0.056-0.26-0.113-0.389-0.171c-0.638-0.283-1.269-0.582-1.891-0.902  c-0.127-0.065-0.252-0.132-0.378-0.199c-0.621-0.327-1.235-0.67-1.839-1.033c-0.044-0.027-0.09-0.048-0.134-0.075l-0.274,2.575  c4.742,6.079,24.216,26.103,66.769,12.28l0,0l-1.558-14.654c-0.001,0.001-0.003,0.001-0.004,0.002  c-0.636,0.377-1.284,0.728-1.938,1.064c-0.171,0.088-0.342,0.172-0.514,0.258c-0.534,0.265-1.075,0.517-1.621,0.755  c-0.146,0.064-0.292,0.132-0.439,0.194c-0.681,0.287-1.368,0.555-2.062,0.8c-0.118,0.042-0.236,0.077-0.354,0.118  c-0.583,0.199-1.171,0.383-1.763,0.552c-0.198,0.057-0.395,0.111-0.593,0.165c-0.602,0.161-1.206,0.308-1.815,0.438  c-0.115,0.025-0.229,0.055-0.344,0.078c-0.716,0.145-1.437,0.267-2.162,0.37c-0.184,0.026-0.369,0.046-0.552,0.068  c-0.563,0.072-1.129,0.129-1.697,0.174c-0.209,0.017-0.419,0.034-0.629,0.047c-0.735,0.045-1.471,0.075-2.212,0.075h-27.21  c-0.807,0-1.611-0.03-2.412-0.084C178.935,320.199,178.886,320.197,178.837,320.193z"/>
<path style="fill:#F2F2F2;" d="M378,413.071c-1.345-24.494-17.533-45.111-40.419-51.286l-86.644-19.633  c-1.264-0.286-2.591-0.031-3.659,0.705l-52.435,36.168l-52.435-36.168c-1.067-0.736-2.394-0.992-3.659-0.705l-86.644,19.633  c-22.886,6.175-39.074,26.792-40.419,51.286l-3.66,70.367c-0.33,6.342,4.723,11.665,11.074,11.665h174.946h0.796h0.796h174.946  c6.35,0,11.404-5.324,11.075-11.665L378,413.071z"/>
<g>
	<path style="fill:#E6E6E6;" d="M194.842,379.025l-0.001,0.001l-0.046-0.033l-52.387-36.135c-1.067-0.736-2.394-0.992-3.659-0.705   l-24.075,5.455l-0.135,0.04l36.761,46.825c1.326,1.689,3.63,2.262,5.593,1.391l37.949-16.837L194.842,379.025z"/>
	<path style="fill:#E6E6E6;" d="M194.85,379.025l0.001,0.001l0.046-0.033l52.387-36.135c1.067-0.736,2.394-0.992,3.659-0.705   l24.075,5.455l0.135,0.04l-36.761,46.825c-1.326,1.689-3.63,2.262-5.593,1.391l-37.949-16.837L194.85,379.025z"/>
</g>
<g>
	<polygon style="fill:#FC3F49;" points="194.856,379.026 194.856,379.024 194.854,379.025 194.853,379.024 194.853,379.026    174.182,388.193 184.563,413.973 205.145,413.973 215.501,388.189  "/>
	<polygon style="fill:#FC3F49;" points="205.148,413.973 194.856,413.973 184.563,413.973 171.532,495.103 219.023,495.103  "/>
</g>
<path style="fill:#F28F0C;" d="M222.456,128.978h-22.457c29.585,0,53.569,23.984,53.569,53.569v54.203h22.457v-54.203  C276.025,152.961,252.041,128.978,222.456,128.978z"/>
<path style="fill:#FFC07B;" d="M263.292,210.634v39.823c8.978-0.592,16.066-7.239,16.066-15.395v-9.028  C279.357,217.878,272.27,211.226,263.292,210.634z"/>
<path style="fill:#FED9A8;" d="M126.396,210.634v39.823c-8.978-0.592-16.066-7.239-16.066-15.395v-9.028  C110.33,217.878,117.417,211.226,126.396,210.634z"/>
<path style="fill:#FE9901;" d="M222.456,128.978h-54.879c-29.585,0-53.569,23.984-53.569,53.569v33.983  c2.929-3.332,7.361-5.564,12.389-5.895v0.035l0,0v-7.857c8.287-10.563,27.28-4.275,66.815-5.796  c29.742-1.143,42.374-16.881,47.556-32.451c3.533,1.362,17.215,8.65,17.215,39.785c0,3.634,2.418,5.468,5.566,6.31  c5.127,0.406,9.606,2.79,12.476,6.293v-34.409C276.025,152.961,252.041,128.978,222.456,128.978z"/>
<g>
	<path id="SVGCleanerId_0" style="fill:#FED9A8;" d="M257.981,204.352c0-31.136-13.683-38.423-17.215-39.785   c-5.182,15.57-17.814,31.308-47.556,32.451c-39.534,1.519-58.527-4.768-66.815,5.796v57.177c0,13.443,5.322,26.286,14.702,35.479   l14.382,14.095c7.028,6.888,16.3,10.721,25.932,10.721h27.21c9.633,0,18.904-3.833,25.932-10.721l14.382-14.095   c9.381-9.193,14.702-22.037,14.702-35.479v-49.303C260.444,209.857,257.981,208.021,257.981,204.352z"/>
</g>
<g>
	<path id="SVGCleanerId_0_1_" style="fill:#FED9A8;" d="M257.981,204.352c0-31.136-13.683-38.423-17.215-39.785   c-5.182,15.57-17.814,31.308-47.556,32.451c-39.534,1.519-58.527-4.768-66.815,5.796v57.177c0,13.443,5.322,26.286,14.702,35.479   l14.382,14.095c7.028,6.888,16.3,10.721,25.932,10.721h27.21c9.633,0,18.904-3.833,25.932-10.721l14.382-14.095   c9.381-9.193,14.702-22.037,14.702-35.479v-49.303C260.444,209.857,257.981,208.021,257.981,204.352z"/>
</g>
<g>
	<path id="SVGCleanerId_0_2_" style="fill:#FED9A8;" d="M257.981,204.352c0-31.136-13.683-38.423-17.215-39.785   c-5.182,15.57-17.814,31.308-47.556,32.451c-39.534,1.519-58.527-4.768-66.815,5.796v57.177c0,13.443,5.322,26.286,14.702,35.479   l14.382,14.095c7.028,6.888,16.3,10.721,25.932,10.721h27.21c9.633,0,18.904-3.833,25.932-10.721l14.382-14.095   c9.381-9.193,14.702-22.037,14.702-35.479v-49.303C260.444,209.857,257.981,208.021,257.981,204.352z"/>
</g>
<g>
	<path style="fill:#FFC07B;" d="M193.211,206.945c32.853,0,48.835-21.318,55.189-36.694c-3.152-3.627-6.213-5.137-7.633-5.685   c-5.182,15.57-17.814,31.308-47.556,32.451c-39.534,1.519-58.527-4.768-66.815,5.796v9.927   C134.683,202.177,153.646,206.945,193.211,206.945z"/>
	<path style="fill:#FFC07B;" d="M257.981,204.352c0-30.037-12.731-37.876-16.801-39.616v95.254c0,13.443-5.322,26.286-14.702,35.479   l-14.382,14.095c-7.028,6.888-16.3,10.721-25.932,10.721h22.457c9.633,0,18.904-3.833,25.932-10.721l14.382-14.095   c9.381-9.193,14.702-22.037,14.702-35.479v-49.303C260.444,209.857,257.981,208.021,257.981,204.352z"/>
</g>
<path style="fill:#F9A93E;" d="M150.661,163.85c-9.146,8.504-9.943,21.661-15.725,15.443c-5.782-6.218-3.056-18.154,6.09-26.657  s21.247-10.356,27.029-4.139C173.837,154.715,159.806,155.346,150.661,163.85z"/>
<g>
	<path style="fill:#232323;" d="M158.769,241.639c-3.509,0-6.354-2.844-6.354-6.354v-5.092c0-3.509,2.844-6.354,6.354-6.354   c3.509,0,6.354,2.844,6.354,6.354v5.092C165.123,238.794,162.278,241.639,158.769,241.639z"/>
	<path style="fill:#232323;" d="M230.919,241.639c-3.509,0-6.354-2.844-6.354-6.354v-5.092c0-3.509,2.844-6.354,6.354-6.354   c3.509,0,6.354,2.844,6.354,6.354v5.092C237.272,238.794,234.428,241.639,230.919,241.639z"/>
</g>
<path style="fill:#FFF4E9;" d="M194.843,294.939c10.993,0,20.232-6.254,22.864-14.724c0.763-2.453-1.104-4.94-3.673-4.94h-38.381  c-2.569,0-4.436,2.487-3.673,4.94C174.612,288.685,183.851,294.939,194.843,294.939z"/>
<g>
	<path style="fill:#E6E6E6;" d="M52.495,385.566l-14.018-17.927c-15.437,9.333-25.665,26.183-26.721,45.433l-3.66,70.367   c-0.33,6.342,4.723,11.665,11.074,11.665h49.338l2.443-51.557C71.94,422.634,65.392,402.059,52.495,385.566z"/>
	<path style="fill:#E6E6E6;" d="M337.174,385.566l14.018-17.927c15.437,9.333,25.665,26.183,26.721,45.433l3.66,70.367   c0.33,6.342-4.724,11.665-11.075,11.665H321.16l-2.443-51.557C317.728,422.634,324.277,402.059,337.174,385.566z"/>
</g>
<polygon style="fill:#EA2F41;" points="206.492,421.83 205.148,413.973 194.856,413.973 184.563,413.973 183.301,421.83 "/>
<path style="fill:#E6E6E6;" d="M337.581,361.785l-86.644-19.633c-1.264-0.286-2.591-0.031-3.659,0.705l-3.896,2.687l71.671,16.24  c10.836,2.924,20.167,9.089,27.136,17.366l9.003-11.513l0.026-0.035C347.028,365.078,342.459,363.1,337.581,361.785z"/>
<g>
	<path style="fill:#232323;" d="M492.724,137.873c-0.399,4.408,2.851,8.304,7.26,8.704c0.245,0.022,0.489,0.032,0.732,0.032   c4.099,0,7.595-3.13,7.972-7.292l3.278-36.217c0.005-0.054,0.002-0.109,0.005-0.162c0.012-0.17,0.017-0.34,0.017-0.511   c0.001-0.113,0.002-0.227-0.001-0.34c-0.006-0.175-0.022-0.349-0.041-0.524c-0.011-0.102-0.016-0.204-0.031-0.306   c-0.036-0.258-0.084-0.514-0.145-0.767c-0.003-0.014-0.005-0.028-0.009-0.042c-0.067-0.272-0.152-0.542-0.248-0.807   c-0.021-0.06-0.049-0.118-0.073-0.176c-0.079-0.202-0.163-0.403-0.259-0.599c-0.036-0.075-0.077-0.146-0.116-0.219   c-0.092-0.175-0.189-0.347-0.294-0.517c-0.05-0.08-0.104-0.158-0.157-0.237c-0.105-0.154-0.213-0.305-0.329-0.453   c-0.065-0.082-0.131-0.163-0.2-0.245c-0.115-0.136-0.237-0.267-0.363-0.398c-0.046-0.047-0.085-0.099-0.132-0.145   c-0.034-0.033-0.072-0.061-0.106-0.093c-0.047-0.045-0.088-0.092-0.136-0.136c-0.085-0.077-0.177-0.143-0.266-0.216   c-0.084-0.069-0.167-0.141-0.254-0.206c-0.157-0.12-0.318-0.229-0.481-0.334c-0.071-0.046-0.139-0.095-0.212-0.139   c-0.22-0.134-0.444-0.255-0.673-0.365c-0.019-0.01-0.038-0.021-0.059-0.031c-0.528-0.25-1.077-0.437-1.636-0.564   c-0.03-0.007-0.061-0.011-0.092-0.017c-0.242-0.052-0.485-0.094-0.729-0.123c-0.072-0.009-0.144-0.013-0.217-0.02   c-0.205-0.019-0.409-0.032-0.614-0.035c-0.093-0.001-0.185,0-0.278,0.001c-0.186,0.003-0.37,0.013-0.555,0.03   c-0.063,0.005-0.125,0.003-0.188,0.01l-32.643,3.636c-4.399,0.49-7.568,4.454-7.078,8.852c0.49,4.399,4.468,7.566,8.852,7.078   l11.683-1.301l-41.574,46.126L404.94,130.8c-3.32-2.484-7.989-2.028-10.762,1.055l-71.49,79.48V16.896   c0-4.427-3.587-8.014-8.014-8.014s-8.014,3.587-8.014,8.014v215.333c0,0.064,0.009,0.127,0.01,0.19   c0.003,0.147,0.011,0.295,0.022,0.441c0.01,0.124,0.022,0.247,0.037,0.37c0.017,0.132,0.037,0.264,0.06,0.395   c0.023,0.131,0.048,0.262,0.078,0.391c0.028,0.122,0.06,0.243,0.094,0.364c0.036,0.13,0.074,0.26,0.116,0.388   c0.041,0.121,0.084,0.239,0.13,0.358c0.047,0.122,0.095,0.243,0.149,0.361c0.053,0.121,0.113,0.24,0.173,0.359   c0.057,0.111,0.113,0.221,0.175,0.329c0.067,0.119,0.139,0.235,0.214,0.35c0.066,0.105,0.134,0.208,0.205,0.309   c0.077,0.109,0.158,0.216,0.242,0.323c0.081,0.104,0.165,0.206,0.251,0.306c0.081,0.094,0.166,0.187,0.252,0.278   c0.1,0.106,0.204,0.208,0.31,0.309c0.047,0.045,0.089,0.093,0.137,0.137c0.042,0.037,0.088,0.069,0.13,0.106   c0.099,0.085,0.2,0.168,0.303,0.248c0.1,0.078,0.201,0.155,0.303,0.228c0.102,0.072,0.204,0.14,0.309,0.207   c0.112,0.072,0.224,0.14,0.339,0.206c0.103,0.059,0.207,0.115,0.313,0.17c0.121,0.062,0.244,0.121,0.366,0.176   c0.106,0.048,0.212,0.094,0.32,0.137c0.128,0.051,0.259,0.098,0.389,0.142c0.108,0.037,0.216,0.074,0.326,0.106   c0.138,0.041,0.276,0.074,0.416,0.107c0.107,0.025,0.213,0.052,0.322,0.073c0.159,0.031,0.318,0.052,0.479,0.073   c0.091,0.012,0.181,0.028,0.274,0.036c0.255,0.025,0.512,0.038,0.768,0.038h0.001h0.001h116.408c4.427,0,8.014-3.587,8.014-8.014   c0-4.427-3.587-8.014-8.014-8.014h-98.421l68.534-76.195l37.39,28.001c3.318,2.484,7.981,2.03,10.757-1.048l44.489-49.361   L492.724,137.873z"/>
	<path style="fill:#232323;" d="M503.985,224.215h-39.229c-4.427,0-8.014,3.587-8.014,8.014c0,4.427,3.587,8.014,8.014,8.014h39.229   c4.427,0,8.014-3.587,8.014-8.014C511.999,227.802,508.412,224.215,503.985,224.215z"/>
	<path style="fill:#232323;" d="M386.001,412.632c-1.537-27.98-20.156-51.522-46.334-58.585c-0.105-0.028-0.209-0.055-0.315-0.078   l-11.123-2.521c-4.324-0.98-8.61,1.728-9.588,6.044c-0.979,4.317,1.728,8.609,6.044,9.588l10.958,2.483   c1.053,0.288,2.086,0.619,3.105,0.979l-7.888,10.087c-14.073,17.999-21.228,40.478-20.147,63.297l2.044,43.164h-86.976   l-12.354-72.237l6.413-15.97l9.704,4.305c1.634,0.726,3.367,1.092,5.153,1.092c3.927,0,7.57-1.772,9.995-4.861l33.636-42.844   l13.175,2.984c4.315,0.981,8.609-1.728,9.587-6.045c0.978-4.317-1.728-8.609-6.045-9.587l-18.224-4.129   c-0.012-0.002-0.022-0.006-0.034-0.01l-24.072-5.454l0,0l-0.004-0.001c-0.192-0.044-0.388-0.066-0.582-0.1   c-0.237-0.042-0.473-0.094-0.712-0.123c-3.042-0.361-6.147,0.394-8.689,2.147l-0.468,0.323l-4.911-2.947l-1.55-14.585   c1.515-1.157,2.977-2.405,4.363-3.763l14.382-14.094c10.871-10.656,17.107-25.672,17.107-41.203v-3.271   c9.239-3.542,15.721-11.973,15.721-21.659v-9.028c0-4.175-1.225-8.107-3.332-11.53v-31.956c0-33.958-27.626-61.584-61.584-61.584   h-54.879c-33.958,0-61.583,27.626-61.583,61.584v31.401c-2.324,3.548-3.677,7.684-3.677,12.085v9.028   c0,9.806,6.641,18.334,16.066,21.795v3.133c0,15.529,6.235,30.548,17.108,41.203l14.382,14.094   c1.289,1.263,2.643,2.429,4.043,3.518l-1.577,14.829l-4.91,2.947l-0.466-0.322c-0.081-0.056-0.168-0.1-0.25-0.154   c-2.863-1.88-6.389-2.531-9.731-1.772l-24.075,5.454c-0.006,0.001-0.012,0.003-0.018,0.004l-62.552,14.179   c-0.107,0.023-0.212,0.05-0.316,0.078c-11.873,3.203-22.448,9.855-30.582,19.236c-0.248,0.285-0.463,0.588-0.663,0.895   c-8.838,10.575-14.229,24.015-15.023,38.477l-0.577,11.101c-0.23,4.421,3.167,8.189,7.588,8.42   c4.431,0.237,8.189-3.168,8.419-7.588l0.576-11.078c0.76-13.848,7.034-26.45,17.121-34.905l9.304,11.897   c11.709,14.975,17.662,33.679,16.763,52.666l-2.083,43.921H19.169c-1.149,0-1.89-0.601-2.23-0.957   c-0.34-0.358-0.901-1.131-0.841-2.277l1.336-25.661c0.23-4.421-3.166-8.189-7.587-8.42c-4.428-0.217-8.19,3.167-8.419,7.588   l-1.284,24.679c-0.057,0.322-0.1,0.648-0.118,0.981c-0.271,5.207,1.632,10.362,5.223,14.144c3.59,3.782,8.639,5.951,13.854,5.951   h0.067h49.338h103.025h47.491h102.138h49.339h0.085c5.215,0,10.263-2.169,13.855-5.951c3.591-3.782,5.495-8.937,5.224-14.144   L386.001,412.632z M199.728,405.959h-9.753l-5.468-13.579l10.341-4.586l10.333,4.585L199.728,405.959z M170.932,380.867   c-0.003,0.001-0.006,0.003-0.011,0.005l-14.913,6.616l-27.346-34.833l10.415-2.359l39.441,27.205l-4.736,2.101L170.932,380.867z    M233.683,387.489l-16.956-7.524l-5.553-2.465l39.439-27.203l10.415,2.359L233.683,387.489z M167.577,136.992h54.879   c25.12,0,45.556,20.436,45.556,45.556v20.706c-0.234-0.052-0.473-0.085-0.71-0.132c-0.427-0.084-0.851-0.175-1.285-0.239   c-0.01-0.001-0.019-0.004-0.029-0.005c-0.01-0.72-0.036-1.414-0.06-2.113c-0.011-0.319-0.014-0.651-0.028-0.966   c-0.031-0.719-0.078-1.414-0.123-2.109c-0.02-0.306-0.032-0.623-0.055-0.924c-0.05-0.669-0.114-1.313-0.177-1.96   c-0.03-0.31-0.053-0.63-0.085-0.935c-0.067-0.62-0.147-1.216-0.225-1.817c-0.041-0.31-0.075-0.632-0.118-0.937   c-0.083-0.586-0.18-1.148-0.274-1.715c-0.049-0.298-0.093-0.608-0.145-0.901c-0.097-0.546-0.206-1.07-0.313-1.597   c-0.06-0.294-0.113-0.598-0.175-0.887c-0.11-0.51-0.231-0.997-0.349-1.488c-0.069-0.286-0.133-0.583-0.204-0.864   c-0.123-0.48-0.255-0.938-0.385-1.402c-0.077-0.274-0.149-0.558-0.228-0.825c-0.133-0.448-0.275-0.874-0.414-1.306   c-0.085-0.265-0.167-0.541-0.254-0.799c-0.141-0.416-0.29-0.81-0.437-1.211c-0.094-0.256-0.184-0.524-0.281-0.775   c-0.152-0.395-0.312-0.771-0.469-1.153c-0.098-0.236-0.192-0.483-0.292-0.715c-0.159-0.368-0.324-0.717-0.488-1.071   c-0.105-0.228-0.207-0.465-0.314-0.686c-0.167-0.345-0.338-0.671-0.509-1.002c-0.109-0.213-0.216-0.435-0.327-0.643   c-0.175-0.329-0.356-0.639-0.535-0.955c-0.11-0.193-0.218-0.396-0.329-0.585c-0.184-0.311-0.371-0.605-0.558-0.902   c-0.111-0.177-0.22-0.363-0.331-0.535c-0.184-0.284-0.372-0.551-0.558-0.823c-0.118-0.171-0.233-0.35-0.35-0.516   c-0.185-0.26-0.372-0.503-0.558-0.752c-0.122-0.162-0.243-0.333-0.364-0.49c-0.188-0.243-0.376-0.468-0.565-0.699   c-0.122-0.15-0.243-0.307-0.365-0.451c-0.192-0.228-0.386-0.44-0.578-0.657c-0.119-0.134-0.237-0.275-0.356-0.404   c-0.197-0.215-0.393-0.414-0.59-0.618c-0.114-0.118-0.229-0.244-0.343-0.358c-0.206-0.206-0.41-0.399-0.614-0.593   c-0.104-0.098-0.208-0.204-0.311-0.3c-0.205-0.19-0.408-0.367-0.612-0.545c-0.1-0.089-0.203-0.184-0.302-0.269   c-0.205-0.175-0.408-0.338-0.61-0.502c-0.095-0.077-0.192-0.161-0.287-0.236c-0.212-0.168-0.42-0.322-0.627-0.478   c-0.082-0.062-0.167-0.129-0.249-0.189c-0.215-0.157-0.424-0.301-0.634-0.446c-0.072-0.049-0.145-0.104-0.215-0.152   c-0.246-0.166-0.485-0.321-0.721-0.469c-0.031-0.019-0.064-0.042-0.095-0.061c-0.221-0.138-0.435-0.265-0.648-0.39   c-0.044-0.026-0.091-0.056-0.134-0.08c-0.969-0.56-1.832-0.973-2.546-1.279c-0.033-0.014-0.069-0.031-0.102-0.045   c-0.184-0.077-0.356-0.146-0.518-0.208c-2.043-0.789-4.322-0.705-6.302,0.229c-1.981,0.934-3.494,2.639-4.186,4.718   c-5.768,17.331-18.937,26.154-40.26,26.974c-1.491,0.058-2.945,0.1-4.38,0.136c-0.314,0.007-0.629,0.015-0.945,0.022   c-1.402,0.031-2.787,0.056-4.135,0.069c-0.012,0-0.024,0-0.035,0c-1.464,0.014-2.894,0.018-4.295,0.016   c-0.129,0-0.258-0.001-0.387-0.001c-2.738-0.009-5.356-0.046-7.85-0.1c-0.155-0.003-0.308-0.006-0.461-0.011   c-1.189-0.027-2.356-0.057-3.489-0.09c-0.026-0.001-0.053-0.001-0.079-0.002c-1.12-0.033-2.205-0.067-3.271-0.103   c-0.333-0.011-0.667-0.022-0.996-0.033c-0.939-0.032-1.871-0.064-2.766-0.096c-0.801-0.028-1.587-0.056-2.366-0.081   c-0.686-0.023-1.361-0.045-2.022-0.066c-0.35-0.011-0.7-0.022-1.046-0.032c-2.529-0.076-4.899-0.13-7.134-0.13   c-4.055,0-8.324,0.139-12.417,0.941c-0.215,0.041-0.427,0.083-0.639,0.127c-0.131,0.028-0.263,0.054-0.393,0.084   c-4.65,1.016-8.544,2.856-11.777,6.047v-13.159C122.021,157.428,142.457,136.992,167.577,136.992z M146.707,289.746   c-7.815-7.659-12.298-18.505-12.298-29.756v-6.834c0-0.455-0.047-0.898-0.12-1.331c0.047-0.276,0.083-0.556,0.103-0.841   c0.291-4.416-3.053-8.232-7.47-8.524c-4.81-0.317-8.578-3.567-8.578-7.399v-9.028c0-1.552,0.625-3.003,1.678-4.208   c0.001-0.001,0.003-0.002,0.004-0.004c0.941-1.072,2.184-1.913,3.599-2.465c0.016-0.006,0.032-0.011,0.048-0.017   c0.253-0.097,0.512-0.185,0.776-0.264c0.084-0.026,0.172-0.045,0.258-0.068c0.2-0.054,0.401-0.107,0.605-0.15   c0.111-0.024,0.224-0.042,0.338-0.062c0.185-0.033,0.371-0.065,0.559-0.089c0.074-0.01,0.15-0.015,0.224-0.024   c3.771-0.018,6.92-2.641,7.753-6.162c0.001-0.005,0.003-0.012,0.004-0.017c0.049-0.212,0.089-0.426,0.121-0.643   c0.011-0.066,0.021-0.131,0.03-0.199c0.02-0.163,0.032-0.329,0.043-0.496c0.007-0.122,0.016-0.242,0.018-0.364   c0.001-0.044,0.006-0.087,0.006-0.13v-4.307c0.989-0.551,2.238-0.958,3.791-1.24c0.059-0.011,0.122-0.02,0.182-0.03   c0.353-0.061,0.721-0.114,1.103-0.165c0.12-0.015,0.24-0.031,0.364-0.045c0.392-0.046,0.796-0.088,1.218-0.123   c0.075-0.006,0.147-0.014,0.223-0.019c4.34-0.343,10.247-0.178,17.96,0.094c0.947,0.033,1.921,0.067,2.909,0.1   c0.308,0.011,0.609,0.02,0.921,0.031c1.107,0.036,2.233,0.073,3.394,0.107c0.05,0.001,0.102,0.002,0.152,0.004   c1.128,0.033,2.29,0.062,3.471,0.089c0.2,0.004,0.396,0.01,0.597,0.014c1.251,0.027,2.529,0.05,3.843,0.067   c0.109,0.001,0.221,0.002,0.331,0.003c1.223,0.015,2.477,0.025,3.755,0.029c0.204,0,0.404,0.002,0.61,0.002   c0.204,0,0.402,0.002,0.607,0.002c1.259,0,2.5-0.007,3.734-0.019c0.091-0.001,0.185-0.003,0.276-0.004   c1.377-0.015,2.744-0.038,4.104-0.069c0.33-0.007,0.66-0.015,0.993-0.024c1.525-0.038,3.046-0.083,4.572-0.142   c28.156-1.082,42.761-13.998,50.324-27.573c3.058,4.519,6.126,12.611,6.126,26.899c0,0.431,0.017,0.854,0.05,1.271   c0.026,0.325,0.071,0.643,0.116,0.96c0.013,0.089,0.018,0.181,0.033,0.268c0.065,0.401,0.147,0.795,0.245,1.182v0.002   c0.775,3.08,2.547,5.676,5.14,7.591c0.022,0.017,0.044,0.035,0.066,0.052c0.279,0.203,0.571,0.395,0.869,0.582   c0.056,0.035,0.108,0.074,0.165,0.109c0.274,0.168,0.559,0.323,0.847,0.477c0.089,0.047,0.172,0.099,0.263,0.145   c0.266,0.136,0.544,0.26,0.822,0.385c0.122,0.054,0.239,0.114,0.363,0.167c0.262,0.11,0.535,0.208,0.807,0.309   c0.139,0.051,0.271,0.109,0.414,0.157c0.672,0.285,1.392,0.479,2.149,0.572c0.233,0.04,0.464,0.067,0.696,0.085   c2.773,0.243,5.253,1.466,6.815,3.371c0.044,0.054,0.095,0.1,0.14,0.153c0.87,1.129,1.375,2.448,1.375,3.846v9.028   c0,3.832-3.768,7.081-8.577,7.399c-4.416,0.291-7.761,4.108-7.47,8.524c0.041,0.617,0.157,1.209,0.327,1.776v7.231   c0,11.251-4.483,22.097-12.297,29.756l-14.382,14.094c-1.729,1.695-3.62,3.151-5.634,4.354c-0.024,0.014-0.049,0.024-0.073,0.037   c-0.55,0.326-1.11,0.633-1.679,0.921c-0.015,0.007-0.03,0.015-0.045,0.022c-1.716,0.867-3.505,1.558-5.339,2.066   c-0.002,0-0.004,0.001-0.007,0.002c-1.204,0.332-2.429,0.583-3.664,0.755c-0.075,0.011-0.151,0.018-0.227,0.028   c-0.499,0.065-1,0.115-1.502,0.154c-0.138,0.011-0.275,0.022-0.412,0.031c-0.579,0.036-1.16,0.06-1.742,0.06h-27.21   c-0.592,0-1.183-0.025-1.773-0.062c-0.135-0.009-0.268-0.02-0.403-0.03c-0.537-0.042-1.073-0.095-1.606-0.168   c-0.046-0.006-0.093-0.011-0.139-0.017c-3.838-0.541-7.565-1.869-10.948-3.921c-0.025-0.015-0.05-0.025-0.074-0.038   c-1.918-1.172-3.724-2.572-5.38-4.195L146.707,289.746z M175.222,327.862c0.028,0.004,0.056,0.006,0.083,0.011   c0.884,0.122,1.773,0.213,2.666,0.282c0.209,0.016,0.419,0.033,0.628,0.046c0.933,0.059,1.869,0.099,2.81,0.099h27.21   c0.918,0,1.832-0.038,2.742-0.094c0.209-0.013,0.419-0.03,0.628-0.046c0.819-0.062,1.633-0.144,2.443-0.251   c0.087-0.012,0.173-0.02,0.26-0.032c1.964-0.269,3.899-0.672,5.798-1.198l1.342,12.623c0.266,2.5,1.69,4.732,3.846,6.025   l2.089,1.253l-22.341,15.411l-10.583,7.299l-32.924-22.711l2.089-1.253c2.156-1.293,3.58-3.524,3.846-6.025l1.352-12.715   C171.175,327.147,173.183,327.577,175.222,327.862z M58.808,380.629l-7.887-10.086c1.026-0.362,2.067-0.691,3.122-0.98   l57.319-12.987l33.636,42.845c2.425,3.089,6.068,4.861,9.995,4.861l0,0c1.786,0,3.519-0.369,5.151-1.092l9.701-4.304l6.45,16.017   l-11.595,72.189H76.909l2.045-43.164C80.036,421.105,72.881,398.626,58.808,380.629z M180.936,487.09l10.457-65.103h6.996   l11.133,65.103H180.936z M328.805,487.09l-2.08-43.922c-0.9-18.987,5.053-37.689,16.763-52.665l9.304-11.897   c10.087,8.454,16.362,21.053,17.119,34.883l3.66,70.367c0.061,1.148-0.501,1.919-0.841,2.277c-0.339,0.358-1.08,0.957-2.229,0.957   h-41.696V487.09z"/>
	<path style="fill:#232323;" d="M194.844,302.954c14.243,0,26.792-8.372,30.517-20.36c1.108-3.565,0.445-7.491-1.773-10.502   c-2.228-3.024-5.799-4.831-9.553-4.831h-38.38c-3.754,0-7.325,1.806-9.553,4.831c-2.218,3.011-2.881,6.937-1.774,10.502   C168.051,294.582,180.602,302.954,194.844,302.954z M206.088,283.29c-2.886,2.25-6.923,3.635-11.243,3.635   c-4.32,0-8.357-1.385-11.244-3.635H206.088z"/>
</g>
<g>
</g>
<g>
</g>
<g>
</g>
<g>
</g>
<g>
</g>
<g>
</g>
<g>
</g>
<g>
</g>
<g>
</g>
<g>
</g>
<g>
</g>
<g>
</g>
<g>
</g>
<g>
</g>
<g>
</g>
</svg>
