<?xml version="1.0" encoding="iso-8859-1"?>
<!-- Generator: Adobe Illustrator 19.0.0, SVG Export Plug-In . SVG Version: 6.00 Build 0)  -->
<svg xmlns="http://www.w3.org/2000/svg" xmlns:xlink="http://www.w3.org/1999/xlink" version="1.1" id="Layer_1" x="0px" y="0px" viewBox="0 0 512 512" style="enable-background:new 0 0 512 512;" xml:space="preserve">
<path style="fill:#CCA38D;" d="M401.732,38.912v461.072c0,2.309-1.87,4.18-4.18,4.18H73.185c-2.309,0-4.18-1.87-4.18-4.18V38.912  c0-2.309,1.87-4.18,4.18-4.18h324.368C399.862,34.732,401.732,36.603,401.732,38.912z"/>
<g>
	<path style="fill:#A68472;" d="M89.903,499.984V38.912c0-2.309,1.87-4.18,4.18-4.18H73.185c-2.309,0-4.18,1.87-4.18,4.18v461.072   c0,2.309,1.87,4.18,4.18,4.18h20.898C91.773,504.163,89.903,502.293,89.903,499.984z"/>
	<rect x="150.246" y="49.775" style="fill:#A68472;" width="170.235" height="46.007"/>
</g>
<rect x="102.86" y="73.582" style="fill:#E9F2FF;" width="265.007" height="380.51"/>
<path style="fill:#FF5948;" d="M334.5,258.543h-38.352c-1.731,0-3.135-1.403-3.135-3.135v-38.352c0-1.731,1.403-3.135,3.135-3.135  H334.5c1.731,0,3.135,1.403,3.135,3.135v38.352C337.635,257.139,336.231,258.543,334.5,258.543z"/>
<path style="fill:#D44A3C;" d="M313.911,255.409v-38.352c0-1.731,1.403-3.135,3.135-3.135h-20.898c-1.731,0-3.135,1.403-3.135,3.135  v38.352c0,1.731,1.403,3.135,3.135,3.135h20.898C315.315,258.543,313.911,257.14,313.911,255.409z"/>
<path style="fill:#FF5948;" d="M334.5,337.985h-38.352c-1.731,0-3.135-1.403-3.135-3.135v-38.352c0-1.731,1.403-3.135,3.135-3.135  H334.5c1.731,0,3.135,1.403,3.135,3.135v38.352C337.635,336.581,336.231,337.985,334.5,337.985z"/>
<path style="fill:#D44A3C;" d="M313.911,334.85v-38.352c0-1.731,1.403-3.135,3.135-3.135h-20.898c-1.731,0-3.135,1.403-3.135,3.135  v38.352c0,1.731,1.403,3.135,3.135,3.135h20.898C315.315,337.985,313.911,336.581,313.911,334.85z"/>
<path style="fill:#FF5948;" d="M334.5,417.427h-38.352c-1.731,0-3.135-1.403-3.135-3.135v-38.352c0-1.731,1.403-3.135,3.135-3.135  H334.5c1.731,0,3.135,1.403,3.135,3.135v38.352C337.635,416.024,336.231,417.427,334.5,417.427z"/>
<path style="fill:#D44A3C;" d="M313.911,414.293v-38.352c0-1.731,1.403-3.135,3.135-3.135h-20.898c-1.731,0-3.135,1.403-3.135,3.135  v38.352c0,1.731,1.403,3.135,3.135,3.135h20.898C315.315,417.427,313.911,416.024,313.911,414.293z"/>
<path style="fill:#8A6D5E;" d="M401.732,482.743v17.241c0,2.309-1.87,4.18-4.18,4.18H73.185c-2.309,0-4.18-1.87-4.18-4.18v-17.241  H401.732z"/>
<circle style="fill:#36C8E3;" cx="387.542" cy="123.643" r="55.453"/>
<circle style="fill:#2A8CBD;" cx="387.542" cy="123.643" r="34.026"/>
<g>
	<path style="fill:#FFD359;" d="M426.576,110.314l-11.958-11.958c-0.409-0.409-1.07-0.409-1.477,0l-30.763,30.763   c-0.409,0.409-1.07,0.409-1.477,0l-18.952-18.952c-0.409-0.409-1.07-0.409-1.477,0l-11.957,11.957c-0.409,0.409-0.409,1.07,0,1.477   l32.388,32.388c0.409,0.409,1.07,0.409,1.478,0l44.197-44.197C426.984,111.384,426.984,110.722,426.576,110.314z"/>
	<rect x="138.637" y="7.837" style="fill:#FFD359;" width="193.452" height="41.942"/>
</g>
<circle cx="243.2" cy="247.724" r="7.838"/>
<circle cx="243.2" cy="326.834" r="7.838"/>
<circle cx="243.2" cy="406.267" r="7.837"/>
<path d="M401.758,285.46c-4.329,0-7.838,3.508-7.838,7.837v181.61H187.281c-4.33,0-7.839,3.508-7.839,7.837  c0,4.329,3.509,7.837,7.839,7.837H393.92v5.747H76.803v-5.747h67.89c4.329,0,7.838-3.508,7.838-7.837  c0-4.329-3.509-7.837-7.838-7.837h-67.89V120.163c0-4.329-3.509-7.837-7.839-7.837c-4.329,0-7.838,3.508-7.838,7.837v362.58v17.241  c0,6.626,5.392,12.016,12.018,12.016h324.432c6.627,0,12.018-5.391,12.018-12.016v-17.241V293.297  C409.597,288.969,406.088,285.46,401.758,285.46z"/>
<path d="M265.672,217.24H134.1c-4.33,0-7.839,3.508-7.839,7.837c0,4.329,3.509,7.837,7.839,7.837h131.571  c4.329,0,7.838-3.508,7.838-7.837C273.509,220.747,270.002,217.24,265.672,217.24z"/>
<path d="M169.573,147.648h131.571c4.329,0,7.838-3.508,7.838-7.837c0-4.329-3.509-7.837-7.838-7.837H169.573  c-4.33,0-7.839,3.508-7.839,7.837C161.735,144.141,165.243,147.648,169.573,147.648z"/>
<path d="M169.573,179.35h131.571c4.329,0,7.838-3.508,7.838-7.837c0-4.329-3.509-7.837-7.838-7.837H169.573  c-4.33,0-7.839,3.508-7.839,7.837C161.735,175.843,165.243,179.35,169.573,179.35z"/>
<path d="M134.1,255.225h79.424c4.329,0,7.839-3.508,7.839-7.837c0-4.329-3.509-7.837-7.839-7.837H134.1  c-4.33,0-7.839,3.508-7.839,7.837C126.261,251.717,129.771,255.225,134.1,255.225z"/>
<path d="M265.672,296.683H134.1c-4.33,0-7.839,3.508-7.839,7.837c0,4.329,3.509,7.837,7.839,7.837h131.571  c4.329,0,7.838-3.508,7.838-7.837C273.509,300.191,270.002,296.683,265.672,296.683z"/>
<path d="M134.1,334.666h79.424c4.329,0,7.839-3.508,7.839-7.837c0-4.329-3.509-7.837-7.839-7.837H134.1  c-4.33,0-7.839,3.508-7.839,7.837C126.261,331.158,129.771,334.666,134.1,334.666z"/>
<path d="M265.672,376.125H134.1c-4.33,0-7.839,3.508-7.839,7.837s3.509,7.837,7.839,7.837h131.571c4.329,0,7.838-3.508,7.838-7.837  S270.002,376.125,265.672,376.125z"/>
<path d="M213.525,398.435h-79.424c-4.33,0-7.839,3.508-7.839,7.837c0,4.329,3.509,7.837,7.839,7.837h79.424  c4.329,0,7.839-3.508,7.839-7.837C221.364,401.943,217.854,398.435,213.525,398.435z"/>
<path d="M293.018,206.084c-4.329,0-7.838,3.508-7.838,7.837v44.621c0,4.329,3.509,7.837,7.838,7.837h44.631  c4.329,0,7.839-3.508,7.839-7.837v-44.621c0-4.329-3.509-7.837-7.839-7.837H293.018z M329.811,250.707h-28.954v-28.948h28.954  V250.707z"/>
<path d="M337.648,285.527h-44.631c-4.329,0-7.838,3.508-7.838,7.837v44.621c0,4.329,3.509,7.837,7.838,7.837h44.631  c4.329,0,7.839-3.508,7.839-7.837v-44.621C345.487,289.034,341.978,285.527,337.648,285.527z M329.811,330.148h-28.954V301.2h28.954  V330.148z"/>
<path d="M337.648,364.969h-44.631c-4.329,0-7.838,3.508-7.838,7.837v44.621c0,4.329,3.509,7.837,7.838,7.837h44.631  c4.329,0,7.839-3.508,7.839-7.837v-44.621C345.487,368.478,341.978,364.969,337.648,364.969z M329.811,409.591h-28.954v-28.948  h28.954V409.591z"/>
<path d="M450.873,123.646c0-27.158-17.199-50.369-41.277-59.333v-25.4c0-6.626-5.392-12.016-12.018-12.016h-57.638V7.837  c0-4.329-3.509-7.837-7.838-7.837H138.615c-4.329,0-7.838,3.508-7.838,7.837v19.059H73.145c-6.627,0-12.018,5.391-12.018,12.016  v43.98c0,4.329,3.509,7.837,7.838,7.837s7.839-3.508,7.839-7.837V42.569h53.974v7.206c0,4.329,3.509,7.837,7.838,7.837h3.77v8.133  h-39.559c-4.329,0-7.838,3.508-7.838,7.837v380.51c0,4.329,3.509,7.837,7.838,7.837h265.059c4.329,0,7.838-3.508,7.838-7.837V185.81  c3.84,0.73,7.796,1.127,11.844,1.127c2.144,0,4.262-0.11,6.351-0.319v64.679c0,4.329,3.509,7.837,7.838,7.837  s7.839-3.508,7.839-7.837v-68.32C433.674,174.014,450.873,150.803,450.873,123.646z M393.92,42.569v18.103  c-2.09-0.209-4.208-0.319-6.351-0.319c-9.079,0-17.71,1.935-25.524,5.392h-33.715v-8.133h3.771c4.329,0,7.838-3.508,7.838-7.837  v-7.206H393.92z M324.264,41.938h-18.363V15.673h18.363V41.938z M274.548,41.938V15.673h15.677v26.265H274.548z M243.195,41.938  V15.673h15.677v26.265H243.195z M211.842,41.938V15.673h15.677v26.265H211.842z M180.488,41.938V15.673h15.677v26.265H180.488z   M146.454,15.673h18.358v26.265h-18.358V15.673z M158.063,57.611h154.593v8.133H158.063L158.063,57.611L158.063,57.611z   M158.063,81.418h154.593v6.53H158.063L158.063,81.418L158.063,81.418z M360.048,446.255H110.665V81.418h31.721v14.366  c0,4.329,3.509,7.837,7.839,7.837h170.269c4.329,0,7.838-3.508,7.838-7.837V81.418h12.132  c-10.063,11.211-16.199,26.014-16.199,42.227c0,25.044,14.625,46.735,35.784,56.99v265.619H360.048z M387.569,171.264  c-26.262,0-47.629-21.361-47.629-47.618s21.366-47.619,47.629-47.619c18.945,0,35.337,11.118,43.004,27.168l-10.376-10.373  c-1.676-1.68-3.908-2.607-6.282-2.608c-0.002,0-0.004,0-0.006,0c-2.373,0-4.604,0.924-6.282,2.601l-25.965,25.96l-14.147-14.144  c-1.676-1.68-3.908-2.607-6.282-2.608c-0.002,0-0.004,0-0.006,0c-2.373,0-4.604,0.924-6.282,2.601l-11.96,11.957  c-1.678,1.677-2.602,3.908-2.602,6.281c0,2.373,0.924,4.603,2.602,6.281l32.394,32.388c1.732,1.731,4.007,2.597,6.282,2.597  s4.549-0.866,6.282-2.597l44.213-44.204c0.957-0.959,1.638-2.088,2.065-3.287c0.638,3.103,0.975,6.316,0.975,9.607  C435.197,149.903,413.832,171.264,387.569,171.264z M413.909,108.701l2.353,2.352l-34.6,34.591l-22.787-22.783l2.352-2.352  l14.153,14.151c3.464,3.462,9.1,3.462,12.564,0L413.909,108.701z"/>
<g>
</g>
<g>
</g>
<g>
</g>
<g>
</g>
<g>
</g>
<g>
</g>
<g>
</g>
<g>
</g>
<g>
</g>
<g>
</g>
<g>
</g>
<g>
</g>
<g>
</g>
<g>
</g>
<g>
</g>
</svg>
