<?xml version="1.0" encoding="utf-8"?>
<!-- Generator: Adobe Illustrator 24.0.0, SVG Export Plug-In . SVG Version: 6.00 Build 0)  -->
<svg version="1.1" xmlns="http://www.w3.org/2000/svg" xmlns:xlink="http://www.w3.org/1999/xlink" x="0px" y="0px"
	 viewBox="0 0 256 256" enable-background="new 0 0 256 256" xml:space="preserve">
<g id="Layer_2">
</g>
<g id="Layer_1">
	<g>
	</g>
	<g>
		<g>
			<path fill="#AFAFAF" d="M193.163,121.215H62.837c-1.657,0-3-1.343-3-3v-13.111c0-1.657,1.343-3.006,3-3.006h130.326
				c1.657,0,3,1.349,3,3.006v13.111C196.163,119.872,194.82,121.215,193.163,121.215z"/>
			<path fill="#F0C020" d="M69.19,121.215v46.34c4.59,1.13,8.4,4.23,10.51,8.35v-23.63c0-4.67,3.79-8.47,8.47-8.47
				c4.66,0,8.46,3.79,8.46,8.47c0-4.64,3.77-8.47,8.47-8.47c4.67,0,8.46,3.8,8.46,8.47v23.63c2.69-5.25,8.15-8.84,14.44-8.84
				s11.75,3.59,14.44,8.84v-23.63c0-4.64,3.76-8.47,8.46-8.47c4.68,0,8.47,3.8,8.47,8.47c0-4.68,3.8-8.47,8.46-8.47
				c4.68,0,8.47,3.8,8.47,8.47v23.63c2.11-4.12,5.92-7.22,10.51-8.35v-46.34H69.19z"/>
			<path fill="#E8A61E" d="M186.81,161.415v6.14c-4.59,1.13-8.4,4.23-10.51,8.35v-23.63c0-4.67-3.79-8.47-8.47-8.47
				c-4.66,0-8.46,3.79-8.46,8.47c0-4.67-3.79-8.47-8.47-8.47c-4.7,0-8.46,3.83-8.46,8.47v23.63c-2.69-5.25-8.15-8.84-14.44-8.84
				s-11.75,3.59-14.44,8.84v-23.63c0-4.67-3.79-8.47-8.46-8.47c-4.7,0-8.47,3.83-8.47,8.47c0-4.68-3.8-8.47-8.46-8.47
				c-4.68,0-8.47,3.8-8.47,8.47v23.63c-2.11-4.12-5.92-7.22-10.51-8.35v-6.14c1.576,0.29,3.069,0.722,4.51,1.31v-10.45
				c0-11.795,13.415-18.607,22.93-11.73c9.55-6.903,22.93-0.033,22.93,11.73v10.44c5.307-2.159,11.371-2.242,16.88,0v-10.44
				c0-11.779,13.396-18.621,22.93-11.73c9.522-6.883,22.93-0.058,22.93,11.73v10.46C183.793,162.116,185.242,161.709,186.81,161.415
				z"/>
			<path fill="#FC5D3D" d="M159.37,19.585v82.513h-60.2V72.905H88.99c-4.22,0-7.65-3.42-7.65-7.64v-28.67
				c0-4.22,3.43-7.64,7.65-7.64c4.12,0,7.64,3.331,7.64,7.64v21.02h16.79c2.61,5.43,8.2,9.14,14.58,9.14
				c12.12,0,19.89-12.83,14.44-23.55v-23.62c0-4.68,3.79-8.47,8.46-8.47C155.579,11.115,159.37,14.905,159.37,19.585z"/>
			<rect x="99.17" y="95.765" fill="#B34F33" width="60.2" height="6.333"/>
			<path fill="#FFB69F" d="M128,66.753c-6.352,0-11.959-3.689-14.575-9.135c-5.174-10.536,2.499-23.252,14.575-23.252
				c6.294,0,11.747,3.593,14.435,8.842C147.884,53.919,140.128,66.753,128,66.753z"/>
			<path fill="#FFB69F" d="M65.26,199.445c-6.04,0-11.79-3.39-14.57-9.13c-5.94-12.1,5.04-26.18,18.5-22.76
				c4.59,1.13,8.4,4.23,10.51,8.35C85.17,186.715,77.3,199.445,65.26,199.445z"/>
			<path fill="#FFB69F" d="M205.31,190.315c-2.83,5.81-8.6,9.13-14.57,9.13c-11.99,0-19.93-12.77-14.44-23.54
				c2.11-4.12,5.92-7.22,10.51-8.35C200.27,164.135,211.25,178.215,205.31,190.315z"/>
			<path fill="#72C2E9" d="M237.39,169.295v28.66c0,4.22-3.42,7.65-7.64,7.65h-10.19v39.28H36.44v-39.28H26.25
				c-4.22,0-7.64-3.43-7.64-7.65v-28.66c0-4.23,3.42-7.65,7.64-7.65c4.23,0,7.65,3.43,7.65,7.65v21.02h16.79
				c2.78,5.74,8.53,9.13,14.57,9.13c12.04,0,19.91-12.73,14.44-23.54v-23.63c0-4.67,3.79-8.47,8.47-8.47c4.66,0,8.46,3.79,8.46,8.47
				c0-4.64,3.77-8.47,8.47-8.47c4.67,0,8.46,3.8,8.46,8.47v23.63c-5.51,11.02,2.55,23.54,14.44,23.54c12,0,19.91-12.6,14.44-23.54
				v-23.63c0-4.64,3.76-8.47,8.46-8.47c4.68,0,8.47,3.8,8.47,8.47c0-4.68,3.8-8.47,8.46-8.47c4.68,0,8.47,3.8,8.47,8.47v23.63
				c-5.49,10.77,2.45,23.54,14.44,23.54c5.97,0,11.74-3.32,14.57-9.13h16.79v-21.02c0-4.22,3.41-7.65,7.65-7.65
				C233.97,161.645,237.39,165.065,237.39,169.295z"/>
			<path fill="#FFB69F" d="M128,199.445c-11.89,0-19.95-12.52-14.44-23.54c2.69-5.25,8.15-8.84,14.44-8.84s11.75,3.59,14.44,8.84
				C147.91,186.845,140,199.445,128,199.445z"/>
		</g>
		<g>
			<g>
				<g>
					<path fill="#C5E5FE" d="M211.214,240.382H60.548c-1.381,0-2.5-1.119-2.5-2.5s1.119-2.5,2.5-2.5h148.166v-29.834
						c0-1.381,1.119-2.5,2.5-2.5s2.5,1.119,2.5,2.5v32.334C213.714,239.263,212.595,240.382,211.214,240.382z M50.548,240.382
						h-5.682c-1.381,0-2.5-1.119-2.5-2.5s1.119-2.5,2.5-2.5h5.682c1.381,0,2.5,1.119,2.5,2.5S51.929,240.382,50.548,240.382z"/>
				</g>
			</g>
			<path d="M7.319,105.351c-1.118,0.811-1.367,2.374-0.557,3.491l36,49.666c0.812,1.12,2.376,1.366,3.492,0.558
				c1.118-0.811,1.367-2.374,0.557-3.491l-36-49.666C10,104.791,8.437,104.542,7.319,105.351z"/>
			<path d="M29.126,69.365c-0.447-1.307-1.866-2.001-3.175-1.556c-1.306,0.447-2.002,1.869-1.555,3.175l22.667,66.183
				c0.444,1.297,1.858,2.006,3.175,1.556c1.306-0.447,2.002-1.869,1.555-3.175L29.126,69.365z"/>
			<path d="M209.747,159.066c1.116,0.809,2.68,0.562,3.492-0.558l36-49.666c0.81-1.117,0.561-2.681-0.557-3.491
				c-1.117-0.809-2.68-0.561-3.492,0.558l-36,49.666C208.379,156.692,208.629,158.255,209.747,159.066z"/>
			<path d="M205.763,138.722c1.317,0.45,2.731-0.258,3.175-1.556l22.667-66.183c0.447-1.306-0.249-2.728-1.555-3.175
				c-1.307-0.445-2.728,0.249-3.175,1.556l-22.667,66.183C203.76,136.853,204.457,138.275,205.763,138.722z"/>
			<path d="M50.795,171.452c-3.837,4.729-5.123,10.738-3.677,16.363H36.4v-18.52c0-5.612-4.538-10.15-10.15-10.15
				c-5.591,0-10.14,4.554-10.14,10.15v28.66c0,5.597,4.549,10.15,10.14,10.15h7.69v36.779c0,1.381,1.119,2.5,2.5,2.5
				s2.5-1.119,2.5-2.5v-39.279c0-1.381-1.119-2.5-2.5-2.5H26.25c-2.834,0-5.14-2.311-5.14-5.15v-28.66c0-2.84,2.306-5.15,5.14-5.15
				c2.842,0,5.15,2.295,5.15,5.15v21.02c0,1.381,1.119,2.5,2.5,2.5h15.301c7.121,11.921,24.551,12.316,31.979,0.225
				c3.298-5.37,3.69-11.995,1.021-17.71v-23.054c0-3.292,2.678-5.971,5.97-5.971c3.286,0,5.96,2.679,5.96,5.971v92.609
				c0,1.38,1.12,2.5,2.5,2.5s2.5-1.12,2.5-2.5v-0.01v-92.601c0.01-3.29,2.68-5.96,5.97-5.97c3.28,0.01,5.95,2.68,5.96,5.97v23.05
				c-5.827,12.577,3.43,26.621,16.94,26.621c13.551,0,22.756-14.054,16.94-26.61v-23.061c0.01-3.29,2.68-5.96,5.96-5.97
				c3.29,0.01,5.97,2.68,5.97,5.97v50.75c0,1.38,1.12,2.5,2.5,2.5c1.38,0,2.5-1.12,2.5-2.5v-50.744c0-0.002,0-0.003,0-0.005
				c0-3.292,2.674-5.971,5.96-5.971c3.292,0,5.97,2.679,5.97,5.971v23.051c-5.774,12.335,3.29,26.619,16.94,26.619
				c6.62,0,12.692-3.461,16.06-9.131h15.3c1.381,0,2.5-1.119,2.5-2.5v-21.02c0-2.84,2.31-5.15,5.15-5.15
				c2.834,0,5.14,2.311,5.14,5.15v28.66c0,2.84-2.306,5.15-5.14,5.15h-10.19c-1.381,0-2.5,1.119-2.5,2.5v39.279
				c0,1.381,1.119,2.5,2.5,2.5s2.5-1.119,2.5-2.5v-36.779h7.69c5.591,0,10.14-4.554,10.14-10.15v-28.66
				c0-5.597-4.549-10.15-10.14-10.15c-5.597,0-10.15,4.554-10.15,10.15v18.52h-10.719c1.446-5.631,0.16-11.636-3.676-16.363
				c-3.953-4.871-9.846-7.336-15.895-6.833v-40.903h3.853c3.033,0,5.5-2.468,5.5-5.5v-13.111c0-3.032-2.467-5.5-5.5-5.5H161.87
				V89.355c0-1.38-1.12-2.5-2.5-2.5c-1.38,0-2.5,1.12-2.5,2.5v10.249h-55.2V72.905c0-1.375-1.12-2.5-2.5-2.5H88.99
				c-2.83-0.01-5.14-2.31-5.15-5.14v-6.61c0-1.38-1.12-2.5-2.5-2.5s-2.5,1.12-2.5,2.5v6.61c0,5.59,4.56,10.14,10.15,10.14h7.68
				v24.199H62.837c-3.033,0-5.5,2.468-5.5,5.5v13.111c0,3.032,2.467,5.5,5.5,5.5h3.853v40.905
				C60.634,164.118,54.745,166.583,50.795,171.452z M52.934,189.213c-2.351-4.789-1.683-10.388,1.744-14.611
				c6.508-8.022,18.463-6.018,22.792,2.433c2.172,4.287,1.966,9.292-0.55,13.388C71.216,199.705,57.604,198.855,52.934,189.213z
				 M140.426,177.546c4.244,9.402-2.738,19.388-12.426,19.399c-9.329-0.01-16.974-9.547-12.194-19.938
				C121.066,166.819,135.72,167.2,140.426,177.546z M201.322,174.602c3.427,4.224,4.095,9.822,1.744,14.611
				c-0.001,0.002-0.002,0.005-0.003,0.007c-4.757,9.768-18.32,10.4-23.981,1.163c-2.508-4.092-2.725-9.077-0.555-13.341
				C182.883,168.545,194.845,166.619,201.322,174.602z M62.337,118.215v-13.111c0-0.275,0.224-0.5,0.5-0.5h130.325
				c0.276,0,0.5,0.225,0.5,0.5v13.111c0,0.275-0.224,0.5-0.5,0.5c-163.409,0,32.961,0-130.325,0
				C62.562,118.715,62.337,118.491,62.337,118.215z M184.31,123.715v41.992c-2.019,0.734-3.873,1.823-5.51,3.183v-16.614
				c0-6.049-4.921-10.971-10.97-10.971c-3.403,0-6.449,1.561-8.461,4.005c-2.013-2.444-5.062-4.005-8.469-4.005
				c-6.04,0.01-10.96,4.93-10.96,10.97v16.589c-6.9-5.729-16.97-5.739-23.88,0.003v-16.592c0-6.04-4.92-10.97-10.96-10.97
				c-3.401,0.005-6.45,1.568-8.465,4.011c-2.012-2.447-5.059-4.011-8.465-4.011c-6.049,0-10.97,4.922-10.97,10.971v16.613
				c-1.638-1.361-3.493-2.449-5.51-3.182v-41.991H184.31z"/>
			<circle cx="159.37" cy="213.025" r="2.5"/>
			<path d="M159.37,220.525c-1.38,0-2.5,1.12-2.5,2.5v21.86c0,1.38,1.12,2.5,2.5,2.5c1.38,0,2.5-1.12,2.5-2.5v-21.86
				C161.87,221.645,160.75,220.525,159.37,220.525z"/>
			<circle cx="159.37" cy="79.355" r="2.5"/>
			<circle cx="81.34" cy="48.645" r="2.5"/>
			<path d="M88.99,26.456c-5.59,0-10.15,4.55-10.15,10.14v2.06c0,1.37,1.12,2.5,2.5,2.5s2.5-1.13,2.5-2.5v-2.06
				c0.01-2.83,2.32-5.14,5.15-5.14s5.13,2.31,5.14,5.14v21.02c0,1.387,1.111,2.5,2.5,2.5h15.308
				c7.106,11.96,24.572,12.305,31.981,0.223c3.319-5.411,3.681-11.966,1.021-17.672v-23.08c0.01-3.29,2.68-5.971,5.96-5.971
				c3.29,0,5.96,2.681,5.97,5.971v49.77c0,1.38,1.12,2.5,2.5,2.5c1.38,0,2.5-1.12,2.5-2.5v-49.77c0-6.051-4.92-10.971-10.97-10.971
				c-6.04,0-10.96,4.92-10.96,10.971V36.17c-8.541-7.1-21.689-5.288-27.79,4.505c-2.748,4.411-3.527,9.599-2.294,14.44H99.13v-18.52
				C99.12,31.015,94.57,26.465,88.99,26.456z M116.394,43.318c5.636-9.046,18.96-8.454,23.813,1.024
				c2.173,4.272,1.968,9.275-0.55,13.382c-5.704,9.302-19.358,8.427-23.988-1.208C113.6,52.301,113.871,47.368,116.394,43.318z"/>
		</g>
		<path fill="#F0C020" d="M64.112,81.622c-3.683-1.217-7.487-2.281-9.623-11.48c-1.967,8.473-5.118,9.992-9.623,11.48
			c7.347,2.428,8.455,6.447,9.623,11.48C56.502,84.426,59.832,83.036,64.112,81.622z"/>
		<path fill="#F0C020" d="M122.905,18.917c-3.683-1.217-7.487-2.281-9.623-11.481c-1.967,8.473-5.118,9.992-9.623,11.481
			c7.347,2.428,8.455,6.447,9.623,11.481C115.295,21.721,118.625,20.331,122.905,18.917z"/>
		<path fill="#F0C020" d="M197.238,54.457c-3.683-1.217-7.487-2.281-9.623-11.481c-1.967,8.473-5.118,9.992-9.623,11.481
			c7.347,2.428,8.455,6.447,9.623,11.48C189.628,57.261,192.958,55.871,197.238,54.457z"/>
		<path d="M52.079,93.662c-1.067-4.599-1.771-7.637-7.989-9.691c-2.259-0.746-2.254-3.952,0-4.697
			c3.743-1.237,6.216-2.054,7.989-9.692c0.589-2.538,4.228-2.545,4.818,0c1.813,7.811,4.522,8.549,7.989,9.691
			c2.259,0.746,2.254,3.952,0,4.697c-3.609,1.192-6.218,2.054-7.989,9.691C56.306,96.212,52.672,96.212,52.079,93.662z
			 M50.666,81.679c1.78,1.222,2.996,2.618,3.872,4.094c1.061-1.875,2.29-3.166,3.659-4.128c-1.312-0.939-2.583-2.269-3.699-4.279
			C53.395,79.35,52.106,80.691,50.666,81.679z"/>
		<path d="M110.872,30.956c-1.067-4.599-1.771-7.637-7.989-9.691c-2.259-0.746-2.254-3.952,0-4.697
			c3.743-1.237,6.216-2.054,7.989-9.692c0.589-2.538,4.228-2.545,4.818,0c1.813,7.811,4.522,8.549,7.989,9.691
			c2.259,0.746,2.254,3.952,0,4.697c-3.609,1.192-6.218,2.054-7.989,9.691C115.099,33.506,111.465,33.507,110.872,30.956z
			 M109.459,18.973c1.78,1.222,2.996,2.618,3.872,4.094c1.061-1.875,2.29-3.166,3.659-4.128c-1.312-0.939-2.583-2.269-3.699-4.279
			C112.188,16.645,110.899,17.986,109.459,18.973z"/>
		<path d="M185.206,66.496c-1.067-4.599-1.771-7.637-7.989-9.691c-2.259-0.746-2.254-3.952,0-4.697
			c3.743-1.237,6.216-2.054,7.989-9.692c0.589-2.538,4.228-2.545,4.818,0c1.813,7.811,4.522,8.549,7.989,9.691
			c2.259,0.746,2.254,3.952,0,4.697c-3.609,1.192-6.218,2.054-7.989,9.691C189.432,69.046,185.798,69.047,185.206,66.496z
			 M183.792,54.513c1.78,1.222,2.996,2.618,3.872,4.094c1.061-1.875,2.29-3.166,3.659-4.128c-1.313-0.939-2.583-2.269-3.699-4.279
			C186.521,52.185,185.232,53.526,183.792,54.513z"/>
	</g>
</g>
</svg>
